/* XPM */
static char *_0563_bd4aa6eb8cefad9bd42d65bc5ebeb1e63d11aa7c271b1b0416740f82143d2b0e_0[] = {
/* columns rows colors chars-per-pixel */
"64 64 216 2 ",
"   c #34617A",
".  c #3E6174",
"X  c #777C43",
"o  c #7B665B",
"O  c #697E42",
"+  c #55646A",
"@  c #536F78",
"#  c #676564",
"$  c #65787D",
"%  c #897A42",
"&  c #9A7442",
"*  c #8E6752",
"=  c #AC6C42",
"-  c #A76B47",
";  c #B66A40",
":  c #BA6E45",
">  c #BB6C49",
",  c #AA7643",
"<  c #BB7047",
"1  c #BD734A",
"2  c #B57546",
"3  c #B17B5A",
"4  c #A67051",
"5  c #AF787E",
"6  c #B9726C",
"7  c #C1764C",
"8  c #C5784F",
"9  c #C76A54",
"0  c #C47A51",
"q  c #C87D56",
"w  c #DD7C58",
"e  c #C26A4E",
"r  c #D86B69",
"t  c #D66C65",
"y  c #D8756A",
"u  c #DC7C79",
"i  c #DA7673",
"p  c #CF6E60",
"a  c #488743",
"s  c #4C8A45",
"d  c #528C4B",
"f  c #598644",
"g  c #55904D",
"h  c #668043",
"j  c #718248",
"k  c #659550",
"l  c #689B65",
"z  c #679D64",
"x  c #E4983D",
"c  c #8F904F",
"v  c #87B54F",
"b  c #88BA50",
"n  c #A88D72",
"m  c #B08B70",
"M  c #80AB7F",
"N  c #8B9A74",
"B  c #CE845B",
"V  c #C58158",
"C  c #D2865D",
"Z  c #E59D43",
"A  c #E59F4A",
"S  c #E2955C",
"D  c #E7A745",
"F  c #EAB54D",
"G  c #E6A557",
"H  c #EBBD55",
"J  c #CE8966",
"K  c #D88962",
"L  c #DC956D",
"P  c #D5936A",
"I  c #D7877B",
"U  c #DC9D74",
"Y  c #D79B76",
"T  c #CF9168",
"R  c #E3996F",
"E  c #E19360",
"W  c #E39B73",
"Q  c #DCA47A",
"!  c #DDA57B",
"~  c #E7AA62",
"^  c #E6A379",
"/  c #E0A177",
"(  c #E8B477",
")  c #E6B06F",
"_  c #ECC355",
"`  c #ECC55B",
"'  c #EAC769",
"]  c #F0CE77",
"[  c #3C748E",
"{  c #467589",
"}  c #587882",
"|  c #607881",
" . c #B57B80",
".. c #518690",
"X. c #668C98",
"o. c #7F8694",
"O. c #4E94AF",
"+. c #4D93A2",
"@. c #5593AC",
"#. c #5894A2",
"$. c #4E95B0",
"%. c #5196B1",
"&. c #5599B3",
"*. c #589BB4",
"=. c #4887A0",
"-. c #65A2B9",
";. c #6CA6BC",
":. c #6AA3B9",
">. c #7AAFC3",
",. c #76ADC1",
"<. c #7DB1C4",
"1. c #808694",
"2. c #8D888E",
"3. c #AB9E8A",
"4. c #90B48D",
"5. c #B3AC89",
"6. c #B1BDA0",
"7. c #82AFB0",
"8. c #DF8A87",
"9. c #DE8B89",
"0. c #DE8583",
"q. c #DE9290",
"w. c #E08D8A",
"e. c #E08985",
"r. c #E29998",
"t. c #E29592",
"y. c #E2928F",
"u. c #D1AD9A",
"i. c #D3B19E",
"p. c #E5A384",
"a. c #E6A09D",
"s. c #EBB89D",
"d. c #E9B595",
"f. c #E7BB88",
"g. c #D6B4A1",
"h. c #D9B6A3",
"j. c #DCB9A6",
"k. c #DEBBA9",
"l. c #DEBDBD",
"z. c #E9ADA9",
"x. c #E4A9A7",
"c. c #EBB3B1",
"v. c #E4BCBB",
"b. c #B4CCB4",
"n. c #B2CBAD",
"m. c #F1D284",
"M. c #EBC395",
"N. c #F0C99E",
"B. c #EAD59A",
"V. c #E9C08F",
"C. c #C9D6BE",
"Z. c #EDCDA8",
"A. c #EFC0BF",
"S. c #EBC9B6",
"D. c #EBD5B3",
"F. c #EFD6AB",
"G. c #F2E1B5",
"H. c #F5E1AC",
"J. c #DFCD90",
"K. c #8EB7C7",
"L. c #8EBACB",
"P. c #86B6C8",
"I. c #94BDCD",
"U. c #93B9C1",
"Y. c #97C0CF",
"T. c #9DC4D2",
"R. c #A2C6D4",
"E. c #A8CAD7",
"W. c #AACBD8",
"Q. c #B9CDD5",
"!. c #BAD3DD",
"~. c #B4D1DC",
"^. c #BBD6E0",
"/. c #BFD8E1",
"(. c #C8D8CE",
"). c #EDC7C7",
"_. c #F0C7C6",
"`. c #F1C8C7",
"'. c #E9DCC8",
"]. c #ECDED6",
"[. c #EDDFDA",
"{. c #F5D9D8",
"}. c #F2DAC5",
"|. c #D8E2D8",
" X c #F7E6C9",
".X c #EDE3DB",
"XX c #EBE3D5",
"oX c #F5E3DE",
"OX c #F3E7D9",
"+X c #EEE3C8",
"@X c #C4DBE4",
"#X c #C9DDE6",
"$X c #D3DEE2",
"%X c #DCE3E5",
"&X c #D3E5EC",
"*X c #DEE6EA",
"=X c #DCEAEE",
"-X c #D5E0E3",
";X c #DFECF0",
":X c #CFE3E9",
">X c #E6E6E6",
",X c #EDE5E4",
"<X c #E4E7E8",
"1X c #E3E8EA",
"2X c #ECECEC",
"3X c #E8E9E6",
"4X c #F1EEEC",
"5X c #F7EAE6",
"6X c #F8F2EB",
"7X c #E5EEF2",
"8X c #EDF3F5",
"9X c #F3F3F3",
"0X c #F2F7F9",
"qX c #FCFCFC",
"wX c #FBF7F2",
"eX c #EEF0EF",
/* pixels */
"9XqX2X9XqX2X9X9X2XqX9X2XqX2X9X9X4X9X9X2XqX9X2X9X9X9X9XeX9X9X4X9X9X4X9X9XeX0X9X4X9XeX9X9X4X9X9X4X9X9XeX0X2XeXqX4X9XqXeX9X9XeXqX9X",
"9X>XqX2X2XqX2X9XqX2X9XqX>XqX9X2XqX9X4XqX3X9XqX>XqX9X2XqX9X3XqXeXeXqX2X9XqX>XqX9X>XqX9X2XqXeX9XqX2X9XqX>XqXqX>XqX9X3XqXeXeXqX>X9X",
"9XqX2X9X9X2X9X9X2X9X9X2XqX2X9XqX2X9X9X2XqX9X2XqXeX4X0X2X9XqX2XqX9XeXqX4X4X0X4X9XqXeX9X9X2X9X9XeX9X9X4XqX2XeXqX2X9X9X2X9X9X3XqX9X",
"9X9X9X9X9X9X9X9X9X9X9X9X9X9X9X9X9X9X9X9X9X9X9X9X9X9X9X9XeX9X9X9X9X9X9X9X9X9X9X9X9X9X9X9X9X9X9X9X9X9X9X9X9X9X9X9X9X9X9X9X9X9X9X9X",
"9X2XqX2X2XqX2X9XqX3X0XwX>XqX9X2XqX9X2XqX2X9XqX2XqX9X2XqX9X2XqXeX4XqX2X9X0X2X9X9X>XqX9X2XqXeX9XqX2X9XqX>XqX9X3XqX9X2XqX4XeXqX3X9X",
"9XqX2X9XqX2XqX9X2XqX9X8XqX2X9XqX2X9X9X2XqX9X3XqX2X4XqX2X9XqX,X0XqX>XqXeX4XqX4X9XqX2X9XqX2XqX9X>XqX9X2XqX2X9XqX>X9XqX>XqX9X2XqX9X",
"9X2XqX9X9X9X9X9X9XeX9X9X9X9X9X2X9X9XeXqXeX9X9XeX9X0XeX9X9XeX9X9XeX9XeX9X9XeX9X9XeX9X9X4X9X4X9X9X4X9X9XeX9X9X9X9X9X4X9X9X9X9XeX9X",
"9X2X9X9X2X9X9X9X9XeX9X9X2X9X9X4X9X9X9X9XeX9X9XeX9X9X9X9X9X4X9X9X9X0X9X9X9X9X9X9XeX9X9X9X9X9X9X9XeX9X9XeX9X9X4X0X9XeX9X9XeXqXeX9X",
"9XqX3X9XqX3X0X9X4XqX9X9XqX2X9XqX2X9X9X2XqXeX4XqXeX4XqX2X9XqX2X9XqX2XqX4XeXqX4X9XqX2X9XqX2X9X9X2XqX9XeXqX4XeXqX2X9XqX>X0XqX>XqX9X",
"9X2XqXeXeXqXeX9XqX2X9X9X2X9X9X2XqXeXeXqX2X9X9X2X0X9X2X0X9X2XqX4X4X0X4X9X9X2X9X9X2XqXeX2XqXeX9XqXeX9X9X2XqX9X2XqX4XeXqX9X4XqX2X9X",
"9X9X9X9X9X9X0X8X2XeXeX4X9X9X8X9X9X9X9X9X9X9X9X9X9X9X9X9X9X9X9XXXD.5X9X9X9X9X9X9X9X9X9X9X9X9X9X9X9XeX9XeXeX9XeXeX9X9X9X9X9X9X9X9X",
"4XqX2X9XqX3X0X|.(.qXOX+X9X$X#XwX2X9XqX2XqXeX2XqX4X4XqX2X9X5XM.G Z ( }.4X2XqXeXeXqX4X9X9X4X9X9X2X0X9XeX`.eX4XqX2X9X0X2X9X9X2XqX9X",
"9X3XqX8X2XqX.X4.b.1XB.G.>XI.Q.2XqX9X2XqX2X9XqX2XqX0X3XwXD.G Z x Z x Z V.OX3XqX9X2XqX9X2XqX4X9XqX2X9XwX0.qXqXqXqX9X4XqX4X4XqX3X9X",
"9XqX2X9X0XeXC.g b. X` G.@X&.@X0X2X9X0X2XwX9X2XqXeX2X XG x x x x x x x x A M.OX4X0X2X9X0XeX9X9X2X9X9Xx.i 4X0XqX2X9X9X2X0X9X2XqX9X",
"9X9X4X9X8X3Xz s n.m._ D.>.@.Q.9X2X9X9X2X9X9X9X9X}.) Z x x x D D D Z x x x x G Z.4X4X9X9XeX9X9XeX9X,Xi i 9XqXqX4X9X9XeX9X9X4X9X9X",
"9X2XqX9XeXC.k g 5.` ` 6.%.&.!.2XqX9X2XqX2X9X5Xf.A x x x x F _ _ H H F x x x x x ~  X4X4XqX4XeXqX2Xx.r i qXqXqXqX9XeXqXeXeXqX2X9X",
"9XqX2X9XqX4.n.C.J.H.'.U.E.@X<X0X2X9X0X2X6XZ.G x x x x x F _ ] F.B.' _ F x x x x x Z (  X2X0X9X2X5Xx.v.{.qX9X9X,X0XqX2X0X9X2XqX9X",
"9XeX9X9X2X9X9X2X<X9X2X<X2X2X<X9X9X9X2X}.~ Z x x x x x D _ ] wX$X4X6X` F Z x x x x x Z A V.OX9X9X4X9X9X*X9X9X>X0X9X9X9X9X9X9X9X9X",
"9X2XqX9X2X0X2X2X2X2X2X<X2X8X>X2XqXOX( Z x x x x x x x F _  XqX-X<XqXH._ D x x x x x x x x G Z.wX2X9X0X>X0X9X>XqX9X2XqX4X4XqX2X9X",
"9XqX>X9XqX2XqXeX<XqX2X<XqX3X3XqX.XD.S.R w w w w w w w G _  XqX0XQ.Q.J._ S w w w w w w w w d.S.'.0X9X2XeX2XeX2X>X9XqX>X9X0X>XqX9X",
"9X2XqX9X2XqX2X2X3X2XeX1X2X9X>X2XqX9X,Xt.t r r r r r r K _ m.qXqXqXXX' H y r r r r r r r r v.2XqX4X9X0X>X0X9X%XqX9X2XqX9X9XqX,X9X",
"9X9X9X9X9X9X9X2X<X9X2X<X9X2X3X9X9X9X4Xq.w.{.{.{.{.`.i r ~ _ m.H.H.] _ S r z.{.{.{.{.{.r.r ).9X9X9X9X9X>X9X9X>X9X9X9X9X9X9X9X9X9X",
"eXqX2X9XqX2X0X4X<XqX2X<XqX<X3X0X2X9X4Xy.x.qXqXqXqX5Xi r w G H _ _ H G t r A.qXqXqXqXqXc.r ).9X2X0X9X4X2X4X4X2X2X9X9X>X9X9X2XqX9X",
"9X3XqX2X2XqX2X2X2X2X2X<X2XeX>X2XqXeX5Xt.I c.c.c.c.z.y r r y K S E K y r r r.c.c.c.c.c.e.r v.2XqX2X9XqX%XqX9X%XqX9X4XqXeX9XqX>X9X",
"9X9X9X9X9X1X1X*X$X=X%X-X=X*X$X=X*X1X$Xq.r r r r r r r r r r r r r r r r r r r r r r r r r v.=X=X1X*X*X$X*X=X$X*X1X=X1X7X9XeX0X9X",
"9X9X2X9X9X;.-.-.-.-.-.-.-.-.-.-.-.-.:. .w.`.`.`.`.`._._.`.`._._._.).`.`.`.`._._.`.`._.t.r 2.-.-.-.-.-.-.-.-.-.-.-.-.-.R.9X4X9X9X",
"9X>XqX9X2X%.%.%.$.$.$.$.$.$.$.$.%.%.@. .a.qXqXqXqXqXqXqXqXqXqXqXqXqXqXqXqXqXqXqXqXqXqXz.r 1.$.$.$.$.$.$.$.$.$.$.%.$.$.K.4XqX,X9X",
"9XqX2X9XqX*.L.&X&XP.<.:X&XL.,.&X&XI.@. .w.v._.A._.A.A.A._.v._.A.A.A._.v._.A.v._._.v._.y.r 1.,./.&XW.&.&X&X^.$.:X&X@X$.I.9X2XqX9X",
"9X9X9X9X9X&.R.qXqXY.I.qXqXW.<.qXqX^.@.5 r r r r r r r r r r r r r r r r r r r r r r r r t o.;.8XqX#X*.qXqX;X$.0XqX8X%.I.9X9X9X9X",
"9X2XqX9X2X&.R.qXqXY.L.qXqXW.<.qXqX^.@.5 i 0.w.w.e.e.w.w.e.e.w.w.e.e.w.w.e.e.e.e.e.w.e.u t o.,.8XqX:X*.qXqX=X$.0XqX8X$.K.9XqX2X9X",
"eXqX2X9XqX&.%.*.*.%.%.*.*.%.%.*.*.%.@. .r.qXqXqXqXqXqXqXqXqXqXqXqXqXqXqXqXqXqXqXqXqXqXc.r o.$.*.*.*.%.*.*.*.$.*.*.*.$.I.9X>XqX9X",
"9X2XwX8X2X*.%.$.$.$.$.$.%.$.%.$.%.%.@. .a.qXqXqXqXqXqXqXqXqXqXqXqXqXqXqXqXqXqXqXqXqXqXx.r o.$.$.$.$.$.$.$.$.$.$.$.%.$.K.9XqX2X9X",
"9X9X9X9X9X*.T.0X0XL.P.0X0XR.>.0X9XQ.@.5 r r r r r i y r i r y r y i r r r r i r r r i r r 1.;.=X0X@X*.0X0X:X%.7X0X7X$.L.9X9X9X9X",
"9XqX3X0XqX*.R.qXqXY.L.qXqXW.>.qXqX@X@.5 r r r r r r r r r r r r r r r r r r r r r r r r r 1.;.8XqX#X*.qXqX=X$.0XqX8X$.Y.9X3XqX9X",
"9X3XqXeX2X&.T.8X0XL.L.0X0XT.,.8X0X~.@.5 r.{.{.5XoX{.5X{.{.5X5X{.{.5X{.5X{.5X5X{.5X{.5Xr.r 1.:.=X0X^.*.0X8X:X$.7X0X;X$.L.4XqX2X9X",
"9X9X9X9X9X&.$.$.$.$.$.$.$.$.%.%.$.$.@.5 x.qXqXqXqXqXqXqXqXqXqXqXqXqXqXqXqXqXqXqXqXqXqXc.r 1.$.$.$.$.$.$.$.$.$.%.$.$.$.I.9X8X9X9X",
"9XqX2X9X0X*.%.&.%.%.%.%.%.%.%.%.%.$.@. .0.z.z.z.z.z.z.z.z.z.z.z.z.z.z.z.z.z.z.z.x.z.z.e.t o.$.%.%.%.%.%.%.*.$.%.*.%.$.I.9X2XqX9X",
"9X>XqX4X2X*.R.qXqXY.L.qXqXE.>.qXqX^.@.5 r r r r r r r r r r r t r r r r r r r r r r r r r o.,.7XqX@X*.qXqX=X$.0XqX8X$.K.9XqX>X9X",
"4.4.b.9X0X*.R.qXqXY.I.qXqXW.>.qXqX^.@.5 r r r y u u u u u u u u u u u u u u u u i r r r r o.,.8XqX#X*.qXqX;X%.0XqX0X$.I.9X|.4.4.",
"a a a b.9X*.P.@X@X<.<.@X@XP.;.@X@XI.@.5 r r r u r.r.r.r.r.r.r.r.r.r.r.r.r.r.r.r.w.r r r r o.*.~.@XR.*.@X@XW.$.^.@X^.$.I.2Xl a a ",
"a a a k |.#.%.%.@.@.$.$.O.O.@.O.$.$.@.5 r r t i r.r.r.r.r.r.r.r.r.r.r.r.r.r.r.r.w.r r r p o.$.$.O.O.O.O.$.$.%.%.$.O.O.;.b.a a a ",
"h f s f j g d l @ [ { } { [ { | =.%.X.6 r t p u r.r.r.r.r.r.r.r.r.r.r.r.r.r.r.r.w.p t r p 5 $.=.$ } [ { $ [ [ @ l ..d X k d O O ",
"= = k O ; X d * * . + = *   # = $ #.4 e t 9 ; y r.r.r.r.r.r.r.r.r.r.r.r.r.r.r.r.I ; 9 r e ; X...& *   # ; +   - * s O ; % k & = ",
"= = b c ; X d * - @ + ; *   * - $ X.4 > r 9 ; y r.r.r.r.r.r.r.r.r.r.r.r.r.r.r.r.I ; 9 r e ; X.X.- *   o ; # . ; = s O ; % z , ; ",
"; ; b c ; X h , , c n ; 3 3.3 : 3.5.2 7 p.J ; Y s.s.s.s.s.s.s.s.s.s.s.s.s.s.s.s.Y ; J p.q ; 3.3.> 3 3.3 ; m N ; ; k X ; c b , ; ",
"; 7 2 , ; ; = 2 < 2 2 > 2 0 1 ; e 1 ; : 0 1 ; p.N.N.N.N.N.N.N.N.N.N.N.N.N.N.N.N.! : 1 0 ; ; 1 1 > > 1 2 ; 7 2 < ; , = ; < 2 : ; ",
"2 B W P ; ; ; q U P ; ; ; 0 R U ; ; ; 1 L Q ; T ^ ^ ^ ^ ^ ^ ^ ^ ^ ^ ^ ^ ^ ^ ^ ^ T < C ^ V ; ; ; B Q J ; ; ; B ) T ; ; ; V U G ; ",
"; ; 1 1 < 1 < ; 1 1 : 8 > ; : : : 7 1 ; < 1 ; K R R R R R R R R R R R R R R R R C ; : 1 : 1 7 : ; 1 : 1 7 ; ; < : 2 8 : ; 1 1 ; ",
"< = ; ; e Y Y ; ; ; 1 P Q 1 ; ; : K ! 1 ; ; ; C R R R R R R R R R R R R R R R R C ; ; ; ; q U T ; ; ; 8 U Y ; ; ; 7 L Y > ; ; ; ",
"h.Z.u.i.j.g.j.h.i.j.g.g.j.g.g.j.i.j.k.u.C B B L R R R R R R R R R R R R R R R R E B C q T g.j.i.j.g.i.k.g.g.j.u.h.j.i.k.h.u.k.g.",
"eXqX2X9X9X4X9X9X4X9X9X9XqX2XeXwX2X9X0XS.W R R R R R R R R R R R R R R R R R R R R R R R W }.9X2X9X9X4XqXeX9X9X2X9X9XeX9X9X2XqXeX",
"9X3XqX9X2XqXeXeXqX2X9X9X3XqX9X2XqX9XXXp.R R R R R R R R R R R R R R R R R R R R R R R R R p.].qX2XeXqX3XqX9X2XqX9X2XqXeXeXqX2X9X",
"9XqX2X9XqX2XqX9X2XqXeX9XqXeX9X9X2X4XS.W W W W W W W W W W W W W W W W W W W W W W W W W R R d.,XqXeX4XqXeX4XqX2X9X9X2X0XqX2XqX9X",
"9XeX9XeX9X9X4X9X9X9X9X9XeX9X9X9X9X9XoXoX].{.5X[.oXOXXXoXoX].oX[.XX5X].OXoX].oX.X[.oX{.].5X[.[.9XeX9X9XeX9X9XeX9X9X9X9X9XeX9XeX9X",
"9X2XqX9X4X9XeX9X9XeX9X9XeX9X9X4X0X9XeX0X2X9X9X4X9X9X9X9X9X2X0X9XeXqX2X9X0X4X9X9X2X9X9X8X9X9X9X9XeX9X9XeXqX9XeXqX9XeXqX4X9X0X4X9X",
"9XqX3X9XqX2XqX9X2XqX4XeXqX2X9XqX2X9XqX3XqX9X2XqX4X2XqX2X9XqX2XwXqX3XqXeX2XqX2X9XqX2X9XqX2XqX9X2XqX9X4XqX2XeXqX>X9XqX,XqX9X3XqX9X",
"9X2XqX4X4X0X4X9X9X4X9X9XeX9X9XeX9X9XeX0X4X9X9X4X9X9XeX9X9X4X9X9X2XqX2X9X9X4X9X9X2X9X9X4X0X9X9X9X4X9X9X2X9X9X2XqX9X4XqX4X9XqX2X9X",
"9X9X9X9X9X9X9X9X9X9X9X9X9X9X9X9X9X9X9X9X9X9X9X9X9X9X9X9X9X9X9X9XeX9X9X9X9X9X9X9X9X9X9X9X9X9X9X9X9X9X9X9X9X9XeX9X9X9X9X9X9X9XeX9X",
"9XqX2X9XqX2X9X9X2XqX9X4XqX2X9X0X2X9X9X2XqX9X2XqX9XeXqX2X9XqX2X9XqX2XqXeXeXqX4X9XqX2X9XqX2X9X9X2XqX9X4XqX4X9XqX2X9X0X2X9X9X2XqX9X",
"9X>XqXeX2XqX2X9XqX>X9X0X>XqX9X2XqX9X4XqX>X9XqX>XqX0X>XqX9X2XqX4X2XqX3X9X0X>XqX9X>XqX9X4XqX2X9XqX>X9XqX>XqX0X>XqXeX2XqX2X4XqX>X9X",
"9X0X4X9X9X9X9X9X9X9X9X9X9X4X9X9XeX9X9XeX9X9X4XqX4XeX0X9X9X9X9X9X9X9X9X9X9XqX4X9X9X9X9X9XeX9X9X4X9X9X9X9X9XeX9XeX9X0X4X9X9X4X0X9X",
"9X9XeX9X0X4XqX9X4X0XeX4XqX4X9X0X4X9X0X4X0X9X2X9XeX9XqX2X9X9XeX9X9X4X0X9X4X0X4X9X0X4X9X9X4X0X9X4X0X9X4XqX4X9XqX2X9X9XeX9X9XeXqX9X",
"9X>XqXeX,XqX2X9XqX>X9XqX,X9X9X2XqXeX4XqX2X9XqX>XqXqX>XqX9X>XqX4X2XqX>X9XqX>X0X9X>XqX9X4XqX4X4XqX2X9XqX>XqX9X3XqX9X2XqX2X4XqX>X9X",
"9XqXeX9XqX2X0X9X2XqX9XeXqX2X9XqXeX9X9X,XqX9X2XqX2X2XqX2X9XqX2XqX9X2XqXeXeXqX4X9XqX2X9X0X2X0X9X2X0XeXeXqX2X9XqX>X9XqX2XqX9X2XqX9X"
};
