/* XPM */
static char *ed3d447d06ef48ffd49d1bdc5f85e284AiUsLG3L3vBWfrqP[] = {
/* columns rows colors chars-per-pixel */
"64 64 24 1 ",
"  c #151B26",
". c #1B1E25",
"X c #151C28",
"o c #1A1F29",
"O c #1E2027",
"+ c #1D232C",
"@ c #1F2631",
"# c #21252D",
"$ c #212731",
"% c #232A35",
"& c #282D36",
"* c #262E39",
"= c #292F39",
"- c #27303C",
"; c #2A313D",
": c #30353E",
"> c #2E3641",
", c #303640",
"< c #323A46",
"1 c #353D49",
"2 c #39414C",
"3 c #3C4552",
"4 c #424C59",
"5 c #46505E",
/* pixels */
"%#%&$+=;;=*%&$$$#@$#%$$+#&&$%###%#$&&#-:-&-%&#$%$#$$&%@OO&%%$%##",
";;;;>$3**&*>>&O1153#O#$&&;;1%&;-;--;-$2-**&;>&O1154#O+#&&>>1%%&&",
";-****>*****=*#3**%+-*%@**-&$-%%&*-**&>-*%****#3*%##-**@***%$-&%",
";*;-**>*&=***&=<*%%&-&%%+@&*%>%@&*;-*&>*;*--*-&<*&$%-%*@@@**%>%@",
">*=**=>*;****%&--%@&*%%%@@--#-$@>*=***-*-****%&;-&$&*&%%@%**%-%+",
">***%%1**%%&*+$-*@%$**%$@@%-#;$@@>***$1**%%**+#;%@$%*%%%@@%&#;%+",
"o#####&o++$%#.%%O%##%+oO@#$##%$#oO#$##&+O+#%+O%$+@##%+o++#$%O&$#",
"$,>>=>>*<%#1,<<,;&&>$-<#<;,<2,--$<>>;;>;<&#1><<>;&&>%*,#>>><1>=&",
"&1------*&*;*--*-*%-%----@%**%**%<==**>***&>*--****-%*-=-%****%@",
"&>--**-*%#&%%**&%*%%-@%&-*@***%@&<*>****@@*%%***@*%@*%%&-%%%*%**",
"$<*****%@$;%@%%%@@@@@@%$-%@-*@%%$<*****%@$;%@%&%@@@@%@%#-%***%@*",
"%>**%%*%%$>*%%*@@@@@*++@&-****%**=**%%**%@>*%%*$@@@%%++@&%%***@*",
"%>;*%$%@$O**@@%@@@@++O@O%&%@***%$>;*%$*@@O*%@@$$%+@@+O++%*%%**%@",
"O#++OO+OO%$%%%&oX+++++OO@@+@+#$*###+.oOO#%%%%&%o+++++++ #@+O+@%-",
";14- O13;452>>-.&:-3>2:O#+O O#;->14*.#<3&352>>;o=>-2<1;O+#O.##;&",
"***&O3*%%%@%%%$+3@%-@@%#;<;;-%&@***&.3&%%%*@*@@+2@@*&$%%;,;;-$%%",
"****+>%%%%@-@@@%1%%%%%@%,*%*@%%***-*#>*%-@-@%$$$<%%*%%@%,*%*@%@*",
"*&**&;@*-@*@*@%@-%*%-@*%$%%%@@@*%***&-%%@-@%%$%$;%%-*@-@%%%%@@*@",
"%%%%*>*%@-*%@@@%-%--**%%$**%*@*@@*%%&>*%%-*@%@@$%*%-%*%%#%%*%%@-",
"%**%$*%**@*@@@@%*%*%%%@@O*%@@*%*@%*&$-%$%%*%@@$$-@-**%@%+&*@@@-@",
"%%*%&<o X++@$$$+&###++@@O#+@++++*%*%&<X +++@$@%+&+##++$#+#@+@+++",
"$+$#O+ o+OO@++######2*+O&;#&1;+$@+$+#+ .+XO@#++#&###2-+O&;#*2,O@",
";;*1<;&1>%,-$@@%--%-%++@**@@%*$&;;-2<;-2<#;-@@@%&-%-$@++*&@@$-+@",
"****%*&$%$&$@@@@$@%:@@@%@+@%$$*---%*%%%%@%*@@@@@@@$:$@@%@+@@%@--",
"*****&%@*%*%@@+@@@$,@+@%%++@%O&%*****%*@%@*@@@@@@$$:@++%%++@@+&@",
"******%%@@*@%@@@@@@&$$+@++@@++;@**&-**%%&$&%%@+#@$$$$@@#++@@$+;@",
"@@+@$$@+##&#oOo++#+O#OOo.o++#.$+@@+#$#@++O&#o+ooo####Oo..OO+#.$@",
"#+&&&$&;#;1;*;@@&###&&#.#&$&&&#o##$-=%&,#;1;&;$$%###&*##O=#&&&+O",
">***@%**#&**@%@*$*-;<;*##-***;%&;**-@%&%%&&**@*@&*=><**$%-**--%&",
"%%**$@%*$*@%*%*@%&%---*&&&****%&%%-*@$**$*@%@*@*%%***-**&-**&&%%",
"*%**@@*%%,%&**@****--;>;%&***-*&**-*@@*%$>@****@****;*>-#--**--&",
"**-*****$&%%@*@@@--*-*-*#&%****$**-***@*$**@**@%@***--*&#&@*--&$",
"%$$&%#->-&-$*#%###$$%%@+O&%%&$#+$+$&&#-;-&-%&$$$$#$$%%$O#&%%$%##",
";;;;;$3***&-,&O1254OO##&-;>1#&-->;->-$3-**&->&O1154#OO$&&;>1%%&&",
";;***&>*-&&--%#3&%%$--%@&%&*$-%%%-***%,****-**#3*&##-**%****$-&$",
";---*&>*-*--*--1*%$$-&*@@%&-$,*$%---;&>**-**&*&1*%@&-%*@+%*%$>*@",
">>**&*;*-**-&%&---@&%*%*@%-*#;%@>*=**&;*;**-%&&;-%$&*&*@%@**%;$+",
"****&%1**%$**+#-*+@$*%%@@@*%#-@@*>**%$1--$%&*+$-*@#%*&%%@@&*#;%$",
"#o@$##%+O#$$@O&%+$$#%+OO+@@#+&$+ o###$*oO+$$+O$%+@+%%+oO++$#O&$#",
"#,>>;;;;<%#2,><,;$&<%-,#<;,<2,--$,>>;;>;<&#1><1>;&&;%*>#,,><1>-&",
"&1>**>**-%*-*--%*--%*--=-%*-%*@-&1==*--**&****-*******-=-%***%*@",
"&>*=****%%&%%&-*%&%%%%%&-%@--%**&,>******@&****%@*%@%%%&-%%%*%**",
"&<******@$;%@%-%@@+@%@%#-@%-%%%@&<*****%$$;%%%%%@@@@%%@$-%%***@*",
"$;**%**@%$,%%%%@@$@%*++$**%--%*%$****@**%@>*%@*%@@@*@++@*%***-@%",
"%>;%@$%@@+*&$@%#$+@@++++&%%@%-%%%>;*%$*@@O*%@@$@%@@@+O++%&%$@-%%",
"O##++oO++*&$%%%X+X+++++X##+++$$-###+OoOOO%%%$&&o+OO++++ #$++@@$-",
">14&.#13>352,>;O&;;3<2;O+#.O##,-><4&.#<3;351>>-.*<-3<2;O+#O.##;&",
"***&.3%*@@@%-@$#2$%%$$@@:,;;-$@@****.3&%%%*%*%@+2@@@%$%$:,;;-$%%",
"****$>%%%*@*%@@*<%%%%%@%>*%%%@******$>%%@*@*%$$$1%%-%*@$,-%%@*@*",
"***%&;%%%%*@@@%$-%***%*@%&%%@%@****%&>@*-%*@%$%$-%%%%%-@%%*%@@*@",
"*@%*&>*%@*@*@%@@&*****@*+**%*@%%@%%*&,*@@-@*%@@$*%--*%%%#%%%%%@-",
"%%*%$**%***@@@@$*%*&*@@@+%*@@@**@**%$-*@@%-%@@$$-%-%*%@$+&*@@@-@",
"@**$&<o X++@%@%+&#O$++$$O#@++o++*%*@#<O ++++@@$+$@##++#$O#@+@+++",
"$+$$OO o+OO$++##%$##2&Oo&;@&1>O$+@$@#+ O++O@#@##%###2*+O&;#*2,O@",
">**1<;&1>@:-@@$%**&-%+@+-&@@%*$%>--2<;-2<%>-@@@*=-&-%@++-&@@%-+@",
"******&@*@&$@@@@$$$>$@@$$++%%@&-*-%&-%%@@@%@+@@@#@$:@@@%@+@$@@--",
"-*&--%%@@%&$@$@@+$$;@++%%++@@+&%*****%*@%%&%@@+@@$$:@++%%++@@+&@",
"--%-*-%%-@&$$$+@@@%&%@#+++@@@+;$**&-**%%%$&@%@+#@$$$$@@#+@@@@+;@",
"+@+@@#+@+#&#o++O##+O+oO..O+O#O#$@@+##@@+#O&+ooooo####Oo..OO+#.$@",
"$+$&&&&>+;1-&;@@%##$&&$#O&$&&&+O##$-=%&,#;1;*;$%%###&*##O&#&&&+O",
";***@%-%%-%-%%@%%**><-*$&-***-%$;**-@%&%%&&****%%*=><**$%-**--%%",
"&%-*@@**$-@@%%%@@******&&******&%%-*$$**$*@%@@@@&%******&-**&&%&",
"*%-*@**&$,@*--*@***>-->;$-*&*-*&**-*@@*%$>@****@****;;>;#--**--&",
"**-*@%%*#**%%@*@@***;*-&#*@*-*%@**-***@*$****@*@@****--%#&@*--&$"
};
