/* XPM */
static char *_58d392a1dd34b32c37d29afdedc4d9dHWfvhFZaJIhTKQd5[] = {
/* columns rows colors chars-per-pixel */
"64 64 250 2 ",
"   c #007466",
".  c #017B66",
"X  c #017468",
"o  c #037C69",
"O  c #6F6A4C",
"+  c #8D1B3A",
"@  c #931D3A",
"#  c #971E39",
"$  c #A61D3B",
"%  c #9A2339",
"&  c #A92739",
"*  c #B1293B",
"=  c #B63636",
"-  c #AE3234",
";  c #D93F27",
":  c #D73E29",
">  c #DA3D2C",
",  c #D73E27",
"<  c #CD3A3A",
"1  c #CB3737",
"2  c #D23635",
"3  c #D33B36",
"4  c #DE3E32",
"5  c #D23C39",
"6  c #D73537",
"7  c #CC322D",
"8  c #E13A32",
"9  c #E8362D",
"0  c #B8563E",
"q  c #B37339",
"w  c #FE571E",
"e  c #DD4426",
"r  c #DC432B",
"t  c #D94529",
"y  c #D64236",
"u  c #DC4433",
"i  c #DD4C34",
"p  c #D4433A",
"a  c #D94A3B",
"s  c #DB523D",
"d  c #DA5438",
"f  c #CB4238",
"g  c #E34B25",
"h  c #E2432D",
"j  c #E54C2D",
"k  c #E94E2E",
"l  c #E14826",
"z  c #F4472A",
"x  c #E45225",
"c  c #EB5325",
"v  c #EB5C26",
"b  c #E5522C",
"n  c #EC532C",
"m  c #EC5C2B",
"M  c #E65C27",
"N  c #F35B26",
"B  c #FC5D24",
"V  c #F1562C",
"C  c #F35B2B",
"Z  c #F85E29",
"A  c #FA5323",
"S  c #E24431",
"D  c #E44C31",
"F  c #E94D31",
"G  c #EB4036",
"H  c #E45332",
"J  c #EA5131",
"K  c #E75C35",
"L  c #D46B3A",
"P  c #EC6627",
"I  c #FD6325",
"U  c #FE6A25",
"Y  c #F5632C",
"T  c #FB632A",
"R  c #FB6C2B",
"E  c #F3682A",
"W  c #F4732D",
"Q  c #FB732B",
"!  c #FC7C2A",
"~  c #FB7627",
"^  c #E76737",
"/  c #F66933",
"(  c #EB763A",
")  c #F57936",
"_  c #ED7328",
"`  c #A62843",
"'  c #B52D42",
"]  c #B93343",
"[  c #A83145",
"{  c #991D41",
"}  c #C43B45",
"|  c #AB6C48",
" . c #867645",
".. c #CA4743",
"X. c #D64B42",
"o. c #D55343",
"O. c #D95A44",
"+. c #E05741",
"@. c #DB6346",
"#. c #DC7549",
"$. c #CF744B",
"%. c #E46F45",
"&. c #018466",
"*. c #008C66",
"=. c #03846A",
"-. c #09826D",
";. c #038B6A",
":. c #088E6D",
">. c #009366",
",. c #019B66",
"<. c #019469",
"1. c #029A6A",
"2. c #09966E",
"3. c #058972",
"4. c #029474",
"5. c #029D72",
"6. c #089777",
"7. c #119474",
"8. c #01A266",
"9. c #02AB66",
"0. c #01A469",
"q. c #01AB69",
"w. c #0AA86A",
"e. c #14A968",
"r. c #01B266",
"t. c #01BA66",
"y. c #01B26A",
"u. c #01BD69",
"i. c #0AB567",
"p. c #03A577",
"a. c #00BB72",
"s. c #05B570",
"d. c #17B16E",
"f. c #27B768",
"g. c #519859",
"h. c #6E9952",
"j. c #53B25D",
"k. c #5EB865",
"l. c #02C566",
"z. c #02C369",
"x. c #08C96A",
"c. c #17CA69",
"v. c #17D46B",
"b. c #24CD69",
"n. c #27CB67",
"m. c #36C967",
"M. c #2AD66A",
"N. c #38D669",
"B. c #37CD72",
"V. c #27EC71",
"C. c #45CC69",
"Z. c #48D769",
"A. c #5DDD66",
"S. c #5CDC69",
"D. c #54DA68",
"F. c #51D671",
"G. c #64DE68",
"H. c #72D36D",
"J. c #58E473",
"K. c #54E56C",
"L. c #64E166",
"P. c #6BE166",
"I. c #65E169",
"U. c #73E366",
"Y. c #76E469",
"T. c #68E975",
"R. c #76EB77",
"E. c #AC843C",
"W. c #FD822C",
"Q. c #FD8C2D",
"!. c #F8832A",
"~. c #FD942D",
"^. c #FE9A2E",
"/. c #ED883C",
"(. c #F68935",
"). c #FC9431",
"_. c #F69536",
"`. c #FCA735",
"'. c #FDAB34",
"]. c #FEC53B",
"[. c #FCD23E",
"{. c #AE8A4C",
"}. c #88B55B",
"|. c #9E944C",
" X c #CE8843",
".X c #EB924C",
"XX c #D5B75C",
"oX c #CEAF5D",
"OX c #F3AF4E",
"+X c #F3B161",
"@X c #CDAB64",
"#X c #8EDA6E",
"$X c #ACCE69",
"%X c #88E776",
"&X c #96E876",
"*X c #88F27E",
"=X c #99F075",
"-X c #A9EA77",
";X c #B8E879",
":X c #B8F47C",
">X c #A9EA6E",
",X c #D8D16B",
"<X c #E8CE6C",
"1X c #D6EC6A",
"2X c #D9EC6C",
"3X c #D6E66B",
"4X c #D8F36D",
"5X c #DBEC73",
"6X c #DAF577",
"7X c #C7F074",
"8X c #E3EE6C",
"9X c #E8EF6D",
"0X c #EAFA7D",
"qX c #E5F679",
"wX c #F5FB7E",
"eX c #E5F073",
"rX c #E6C95A",
"tX c #08B688",
"yX c #11B58C",
"uX c #26BE97",
"iX c #29C89B",
"pX c #3AF383",
"aX c #31CDA1",
"sX c #0BD089",
"dX c #4CFA8E",
"fX c #6EF186",
"gX c #52DEB8",
"hX c #66DDB7",
"jX c #52E4B2",
"kX c #44DE95",
"lX c #9AF584",
"zX c #8DF784",
"xX c #A8F785",
"cX c #B8F987",
"vX c #C6F788",
"bX c #DAF884",
"nX c #D5F992",
"mX c #EDFD82",
"MX c #E9F985",
"NX c #F2FD83",
"BX c #FCFF84",
"VX c #F5FE8A",
"CX c #FBFF8C",
"ZX c #E7FC97",
"AX c #F6FE94",
"SX c #FFFEA1",
"DX c #88E9CA",
"FX c #A9F3DA",
"GX c #CEF8E4",
"HX c #E5FDED",
/* pixels */
"        X X X     o . X =.6.o 3.3.o tXX X X X X X X o X                                                                         ",
"    X X       X     =.3.3.3.3.tXo tXo o tXX X X X X o X X                                     X                     X   X       ",
"  . o o o   o o   -.o 4.tXtXtXuXiXtX6.7.X X o o   -.o X     .   o o               . .           .         o . . X X         o o ",
".       . o o o . -.=.:.X yXgXDXDXaXyXp.o 3.3.X -.o -.-.-.. . .   o .   o o o   o .         . .   . . X . .   .   o o . . . .   ",
"o -.. &.-.. . . o =.3.4.4.uXFXHXGXhXyX4.;.;.=.. -.-.o . . . . . . . . . . . . -.. . . . . . . . . . . . . . . . . . . . . . . . ",
"-.=.. . -.&.. o =.=.<.5.tXuXFXHXGXgXyX5.4.*.=.-.. o o &.&.. . . . . &.. o -.&.-.&.. . &.. . . . &.:.. . . &.&.. . &.. . . . . &.",
"&.&.&.&.&.&.&.&.&.=.;.4.4.tXgXDXhXiXtXp.;.=.:.&.&.&.7.&.&.&.&.&.&.&.&.. &.&.&.. &.&.&.=.&.&.&.&.. . =.&.&.&.&.&.&.&.&.&.. &.&.&.",
"&.&.&.&.&.7.:.*.&.*.;.<.<.p.tXyXtXp.5.p.5.*.=.&.&.&.&.&.&.&.-.&.&.&.*.&.&.&.&.&.&.&.&.&.&.&.;.&.7.&.&.:.7.:.:.:.&.&.&.&.&.&.&.&.",
"&.&.*.&.;.;.&.*.*.*.;.<.4.p.p.p.p.5.<.<.4.;.*.&.*.&.*.&.:.&.&.*.*.*.&.&.=.*.&.&.&.&.*.:.&.*.:.*.:.*.*.&.*.:.;.;.&.7.2.&.&.&.&.&.",
"*.*.*.*.*.*.*.*.*.*.<.*.5.5.5.1.5.<.<.<.*.*.*.*.*.&.*.*.*.*.*.*.*.*.*.*.*.*.*.*.*.*.*.*.&.*.*.*.:.:.*.*.;.:.*.*.>.2.*.*.*.*.*.>.",
"*.*.<.*.*.*.*.>.;.<.2.>.1.<.1.,.1.<.<.1.<.;.*.>.*.*.*.>.*.*.*.*.*.*.:.*.*.>.*.*.*.*.*.*.*.*.>.*.2.>.*.*.*.*.*.>.2.*.*.*.>.*.>.*.",
">.>.>.2.<.<.>.>.>.*.>.>.>.<.<.1.<.>.>.>.<.>.>.*.>.>.*.>.>.>.>.>.>.>.>.*.>.>.>.>.>.>.>.<.*.>.>.*.*.>.1.>.2.>.*.<.>.>.>.>.>.*.>.>.",
">.>.>.,.>.>.1.>.<.>.<.<.<.>.,.1.>.,.>.<.1.>.>.>.>.1.<.>.>.>.>.>.,.1.>.>.>.,.<.>.>.1.1.>.<.,.,.>.>.>.>.2.d.4.>.<.<.>.1.>.,.<.<.<.",
"1.1.1.,.<.<.1.1.1.1.1.1.,.1.1.>.1.,.,.,.,.>.,.,.1.1.,.1.,.,.1.,.2.,.,.>.,.,.,.>.,.>.<.,.1.,.,.1.1.,.,.,.<.1.1.,.1.1.,.,.2.e.1.1.",
"<.*.>.,.*.>.<.>.,.,.3.<.,.2.,.1.,.,.,.,.,.8.,.,.,.,.,.,.,.,.,.,.8.,.,.,.,.,.f.D.Z.m.f.e.,.1.1.,.,.,.0.,.1.0.w.,.,.,.,.,.,.p.0.1.",
"k.H.#X-XxX;X7X;X;X-X#XH.H.f.e.,.,.,.0.0.0.,.8.8.8.0.,.0.8.8.8.8.8.8.8.0.0.,.e.S.G.L.L.G.D.f.e.8.,.,.,.0.8.w.1.0.,.0.8.8.1.1.d.8.",
"VXCXBXBXBXBXBXBXBXwXBXBXBXBXMX;XH.w.1.0.0.0.0.0.q.q.0.0.0.w.0.8.9.8.8.0.0.0.0.e.D.G.A.A.L.P.G.D.m.d.8.8.,.9.0.0.0.0.0.0.0.8.9.0.",
"mXMXmX0X0XNXmX0XmXmXmXmX0XmXNXBXBXbXf.0.9.9.q.q.a.u.a.s.e. .9.9.0.0.0.9.9.0.9.0.w.Z.L.A.A.U.U.Y.U.P.D.n.i.8.0.9.9.0.9.q.0.0.0.9.",
"mXmXNXmXNXNXmXmXmXNXmXNXNXmXmXmXmXBX#X1.9.q.y.a.sXaXsXa.i.q g.r.i.q.9.q.9.9.q.r.9.9.m.I.A.G.U.Y.U.U.U.U.P.Z.f.9.9.9.9.9.q.q.9.9.",
"mXmXNXmXmXmXNXNXNXNXNXNXmXmXNXNX0XBX-XB.B.f.s.a.jXHXjXa.a. .L d.{.i.r.r.9.r.r.y.r.r.9.i.D.L.P.U.U.A.G.G.P.U.P.S.m.i.r.9.9.r.r.r.",
"5X6XqXqX0X0X0X0XqXqX4X5X2X2XqXNXNXmXNXBXBXmXbX&XkXjXsXa.u.O 9 h.L {.y.i.r.r.r.r.y.r.r.r.r.m.A.G.U.U.G.A.A.A.A.L.P.G.C.c.r.y.r.i.",
"2X1X1X1X1X1X1X1X1X1X2X1X1X2X1X6XmXmXmXmXNXNXNXBXMX=X%XH.B.h.9 ^ | A j.t.i.t.t.t.t.r.t.u.t.r.c.Z.P.U.G.A.G.A.A.A.G.P.G.L.Z.n.t.t.",
"1X2X1X5X2X1X1X1X1X2X2X1X1X2X1X1X1X5XeXqX0XmX0XMXNXBXBXBXVX,X2 u m 8 $.i.u.u.z.t.t.u.u.u.t.z.t.t.n.A.U.U.A.A.L.U.U.G.L.P.U.U.A.m.",
"9X2X2X1X1X2X2X1X1X1X1X1X1X1X1X2X1X1X8X8X8X8X9X9X8XeXeXqXMX+X7 2 j u 9  Xz.z.z.z.z.z.z.z.t.z.z.l.t.l.N.G.U.A.G.U.P.A.D.N.Z.D.P.P.",
"U.;X1X1X2X1X2X4X6X1X4XqXeX4X2X1X2X7XG.#X#X#XU.D.N.C.S.$X;XoX, 1 3 j < A  Xx.z.z.z.z.x.x.z.l.l.l.z.z.t.c.Z.G.G.G.U.G.M.z.l.l.c.M.",
"z.$XrX4X2X2X3X.XOX<XMXNXmXmXBX&Xm.N.l.z.x.l.l.l.l.l.l.q q f.2 > 3 3 3 < w |.x.x.c.x.z.l.x.x.x.x.c.c.c.c.x.M.D.D.A.L.A.c.x.c.x.x.",
"h.6 z _.3X6X,X8 w R eXmXmXmXBX=Xl.c.b.c.b.b.c.n.n.v.j.9 I $Xa 6 3 S i < k I }.M.b.N.F.%X-X:X7XvX6XbXbXbX6XvXvX:X-X&XY.D.M.v.v.b.",
"0 6 t w / .Xo.2 Y I +XMXNXNXVX6XN.b.n.n.n.n.n.b.c.c.| 4 A OX$.2 S u Z u 3 B B .XbXNXCXBXBXCXVXCXVXVXBXBXNXwXVXCXCXCXMXcXR.N.M.M.",
"1 3 3 Y I z 2 3 j B ) CXqXbXwXNXqX:X%XG.Z.C.Z.G.=X$X2 3 b U a 2 u i D T 3 i U B XX-X<X6XeXwXVXNXmX6X;X>X7X5XeXqXMXAXVXAXAX%XJ.F.",
"3 3 2 j I I 3 3 3 Z w <X:XZ.NXwXwXwXBXBXmXbX6X0XBX%.6 y 3 I V 5 H C 5 Y Y < m U W F. X$XR.>X-X=X%XD.Z.Z.F.R.-X7X5XMXAXnXcXT.J.J.",
"3 3 i u c U r 3 2 H I ) %XM.&XwX0X0XmX0XmX0X1X.X^ 2 3 j 2 D U p u U y u Q m 5 Y I XX@X) xXT.Z.J.J.J.J.J.J.J.J.T.T.R.&XcXcXxXlXzX",
"3 1 D n 3 U n 2 3 y Z w |.V.N.>XeX0XwXNXNXNXXX> U u 2 H i < J D 5 E K 5 m ~ E / ) W.#.C (.+XT.T.T.T.R.T.T.T.T.J.T.J.J.T.xXAXAXSX",
"3 < k C 2 V N 2 3 3 < n Y {.H.N.U.>X>X>X#X=X$.6 Y b 5 u H 2 5 y K J J 5 a E ~ ! ~ ! m d ! ~ <XlX%X&XR.R.R.*XxXcXnXvXcXzXR.*XlXcX",
"3 2 4 V 3 j I u 3 2 n j V 9 9 k.M.Z.Z.M.K.}.7 2 J J 2 5 p u p a R T H a p p s H ^ !.W.a W !.W.+X%.OXvXvXvXZXnXZXnXZXZXZXcXzXzXzX",
"3 3 3 V S H V U u 2 k T 4 p V ^ Z.N.N.j.j.q 6 3 3 J 5 3 H D 5 p R ~ Q Q E a p a p s ( s ^ ! Q.W ^ Q.+XcX:X=XlX=XlX=XxXxXxXxXxXxX",
"5 3 2 j j V u D V 3 D T D 1 n w E.V.k.6 3 3 5 3 3 5 p 5 J E p y d ~ Q ~ ! ^ X.a a s a s ) ( ^ L @.L ^.,XlX:XfXfXlXcXxXxXxXxXxXvX",
"2 y 1 3 u C k 2 j 3 b U C 3 V U c h.f > y 3 3 3 u 5 3 2 H ~ D 5 X.Y ~ ~ ~ W.^ p a o.s X.( ~.!.( ~.^ ( `.3XxXpXpXdXfXcXvXcXcXvXvX",
"3 5 3 3 < j I 3 3 3 3 B I u u U c 6 u 3 3 3 5 3 D i 5 5 H U E p 5 p W ~ ! W.W.^ s o.o.s s Q.~.^.~._.( ).'.+XfXdXT.dXdXzXcXcXcXcX",
"3 3 3 3 5 y I S 2 3 3 6 B C 3 I J $ ] X.6 3 3 3 u Y a 5 p Y Q H a p d ! ! ! ! W.W.^ X.o.o.( ~.).).^._.%.(.~.`.'.'.OXXXR.dXdXdXdX",
"5 3 3 3 5 2 N C j 3 5 3 3 u 5 Y n # $ ' X.3 3 3 3 Z E y 5 i ~ Y H s f E ! ! ! W.W.W.s s O.s ^ ~.^.^._.( ( /./._._._.^.'.OXrX>XfX",
"3 y 5 3 3 3 D U I b 2 5 5 2 2 u 1 @ & $ < 5 6 3 5 D U i 5 5 Y R H / < K !.!.!.W.W.W.) X.o.O.o.@.^ @.@.@.%.#.@.@.#./././.( ( ^ #.",
"3 2 2 2 5 2 3 j n S 3 3 3 3 3 1 & + # & $ X.4 5 2 u U Y 5 p y R i Q K K d ..^ W.W.!.Q.! K X.o.o.o.O.o.o.O.O.O.@.@.@.#.#.#.#.#.#.",
"F F H j j i u 4 u < < 8 3 u 3 % + @ % & $ * p 5 5 5 J T D 5 p p p a K ..[ + # X.W.W.!.Q.W.( ( ( ) /.(.(._._._._._.`.'.].].[.[.[.",
"I I I I I T T I v # = / I I c @ % + @ % $ ' } +.S a u 3 y y y u & + { $ ] [ { @ O.( ! ! ! Q.~.Q.~.Q.Q.).).~.).).`.^.^.^.`.`.'.'.",
"T I B Z N U I b # @ $ ' T x - + @ @ @ & * ' * ' = 1 H R I T U m & - - & - 0 f 0 & ] _ ! ! W.! W.W.(.Q.Q._.`.`.`.).).~.^.).).).~.",
"c c N Z B t = @ # & * $ f ..% % @ # @ # * $ # + + $ $ D x c c x x x x b g g x v M M v P _ W ! W.! Q.).).Q.Q.).Q.Q.).~.^.).).).).",
"> 8 ; l = + + # $ $ @ @ $ $ * + @ @ + # $ $ * - - = 7 7 ; > 4 6 3 4 4 r t e i g M M v M P P P P P P P P _ P P _ P _ _ _ _ _ !.) ",
"I I Z B N b b n r - & = 1 1 t = & % & % & 3 Z B I B v V V n J n b k D j j S l i u u u u r u r u u D a a ..s D i d i H d d b d M ",
"Z C Z Z Z Z B T I B B T Z T R T Z Z Z V N T I Z Z Z Z T T T U Z T I Y Y T Y Y Y T Y Y Y Y Y C Y Y - ` ' % [ d W W Q Q Q W ) W ! ",
"Z Z Z Z Z Z Z Z C Z Z Z N N N C c c c c c c c V v V N N N A Z Z N N Z Z Y T Z U T E T Y / R / R ^ - % & 1 i K W R R / W Q Q Q W ",
"l ; l l l l l g l l e > ; > ; > 8 > > > > > > 8 > > > , > ; ; ; e e e l l g g x b v c v v v v v v Y P P Y P Y m P m v P P m m P ",
"> S S h h h h h h S h k k J F n V V Z C Z A V V V V F F J F S G u 4 4 4 4 8 4 6 4 4 4 4 > > > ; : 4 > r r r r r r r r r r r r u ",
"Z C V C C V V V V N N N C V C N v N V N V v V N V N v V V c c c c g > 8 8 4 S 4 8 h h j k k V V V V V Z C C N C Y C N C m V C Y ",
"n V V v V T / T T C n V V V n V n n g g l l e r ; ; > , ; ; > > > > > u u 8 4 4 > > > > ; > ; e e l g g n m V V J V V V V V V n ",
"V V n n V n V N V V V n V V V n n N V V c V n n F k k z k k S k F S S S S h h h S F D F k k k k b b k c n n n V V n n c c k b n ",
"e l l l l l g g j b n k c v n n n V n n V n V n V V V V c k k k k k n V n n n V V n V n n V V n V n V V n n V n n n n V Z I I I ",
"4 4 4 > 4 4 > > > ; > > r r r t t ; e e r l r l k V n k V N C N B N V n n b n n n n k n k n n n n n n n n J n n n J J V C Z Z Z ",
"4 4 4 4 4 8 8 u 8 4 u 8 4 8 4 > 4 4 > 4 4 > h j k F b n V C Z Z Z Z C n k n n J b J J J n J J J F J F J F n J b J n J b b F n k ",
"4 4 4 u 4 4 4 4 u 4 4 u 4 4 8 S S S D F F F F J k J F j j k k j k D k j k F k F J k F b F k j j k k k k k F k k F b k F F J F k ",
"4 4 4 4 4 4 8 u 8 4 4 8 4 > ; r e r l l g j g j j k k j k j j j j k j k j b j D j k k k k k j k J F F b J D j j F D F j j j j j ",
"4 4 4 4 4 8 4 4 4 8 4 4 4 4 4 > 4 4 > > > > > > ; ; : : ; : , ; , , r ; r ; ; ; ; ; ; ; ; ; t r r ; e r r l j i h j j j D D F F ",
"4 4 u 4 4 u 4 4 u 4 4 4 4 u 4 8 4 S 3 8 u 8 u 4 8 u 4 4 4 4 4 4 4 4 4 4 4 4 4 4 4 u 4 4 4 4 4 8 4 4 4 > > > > : : > ; r t ; t r ",
"4 4 4 4 8 4 u 8 4 4 4 4 4 4 4 S 4 4 4 8 4 4 8 4 4 4 4 4 u 4 8 u 4 4 4 4 4 u 4 > 4 8 4 4 4 4 4 4 4 4 4 8 8 u 8 4 8 4 4 4 4 > > 4 ",
"u 8 4 4 4 4 4 4 4 4 4 4 4 4 4 4 4 4 4 4 4 4 4 4 4 4 4 4 8 4 u 8 > 4 4 4 8 8 u 8 4 4 4 4 4 4 4 u 8 4 4 u 4 4 u 4 u 4 4 4 8 4 4 4 "
};
