/* XPM */
static char *_e8c3222ce964587cb6f30d7e55029662GWbCAN0wMDIDzrO[] = {
/* columns rows colors chars-per-pixel */
"64 64 244 2 ",
"   c #6D012B",
".  c #6A0228",
"X  c #73012D",
"o  c #7A042E",
"O  c #7C0232",
"+  c #7A0435",
"@  c #6F0131",
"#  c #840136",
"$  c #890336",
"%  c #830A32",
"&  c #8A0A35",
"*  c #830039",
"=  c #890239",
"-  c #8E0C38",
";  c #920C39",
":  c #960A35",
">  c #851235",
",  c #8A1C3A",
"<  c #891737",
"1  c #971834",
"2  c #8E132E",
"3  c #A31C33",
"4  c #A61D2F",
"5  c #8D253C",
"6  c #94263A",
"7  c #9A212A",
"8  c #AB272D",
"9  c #BA372C",
"0  c #A82734",
"q  c #B12A35",
"w  c #B93738",
"e  c #AE2E32",
"r  c #C23C34",
"t  c #BA4539",
"y  c #AE483A",
"u  c #9F413F",
"i  c #D34C1D",
"p  c #D3501B",
"a  c #F0701E",
"s  c #CA4928",
"d  c #CC5423",
"f  c #CD5B2C",
"g  c #CE5826",
"h  c #D45827",
"j  c #CA483E",
"k  c #D54D3E",
"l  c #C9573A",
"z  c #D5513F",
"x  c #DA5738",
"c  c #D24D2C",
"v  c #D66327",
"b  c #CE6332",
"n  c #CE6D3D",
"m  c #CA663C",
"M  c #D16534",
"N  c #D26D3B",
"B  c #D96736",
"V  c #D3733D",
"C  c #D9773A",
"Z  c #CB7232",
"A  c #E56B27",
"S  c #E97828",
"D  c #E46938",
"F  c #EE7A32",
"G  c #E97433",
"H  c #F17A33",
"J  c #F27E27",
"K  c #E25A2A",
"L  c #8E2D41",
"P  c #932D41",
"I  c #9C2946",
"U  c #993844",
"Y  c #8F3143",
"T  c #A53A46",
"R  c #B02E45",
"E  c #951F41",
"W  c #C4344C",
"Q  c #CA3C49",
"!  c #C83A47",
"~  c #D03F44",
"^  c #9D4346",
"/  c #A84743",
"(  c #B54A45",
")  c #AC5543",
"_  c #B65747",
"`  c #B96647",
"'  c #CC4344",
"]  c #CC4743",
"[  c #D14644",
"{  c #D34C42",
"}  c #D04548",
"|  c #C85944",
" . c #D55242",
".. c #D65A42",
"X. c #DA5B44",
"o. c #D85442",
"O. c #C46948",
"+. c #DA6646",
"@. c #CA7647",
"#. c #D37542",
"$. c #D47B45",
"%. c #D57E48",
"&. c #DD7845",
"*. c #C36750",
"=. c #E16944",
"-. c #E37747",
";. c #5C997F",
":. c #59967E",
">. c #649E7E",
",. c #699F7E",
"<. c #6CA47E",
"1. c #67A17F",
"2. c #70A77F",
"3. c #75AA7D",
"4. c #7AAD7D",
"5. c #7DB27C",
"6. c #BF8138",
"7. c #C9863C",
"8. c #E78839",
"9. c #F28939",
"0. c #F48F2F",
"q. c #F7A234",
"w. c #EBAA3C",
"e. c #FBC63A",
"r. c #BA9247",
"t. c #B3AF59",
"y. c #8ABE76",
"u. c #82B57C",
"i. c #85B97A",
"p. c #8ABD7A",
"a. c #85BA77",
"s. c #97BB76",
"d. c #B1B769",
"f. c #D5844B",
"g. c #DE8B4B",
"h. c #DA8546",
"j. c #DE8E52",
"k. c #D5954C",
"l. c #EB8B4B",
"z. c #E78747",
"x. c #F19548",
"c. c #E68951",
"v. c #E29254",
"b. c #EA9A56",
"n. c #EE9449",
"m. c #CFAE4F",
"M. c #ECA34A",
"N. c #F3A44E",
"B. c #F4A94A",
"V. c #EDA75B",
"C. c #F3A758",
"Z. c #F8B957",
"A. c #E9B651",
"S. c #C6BA62",
"D. c #EDA961",
"F. c #F0A761",
"G. c #8DC277",
"H. c #8EC279",
"J. c #8BCA7C",
"K. c #92C576",
"L. c #95CA75",
"P. c #9BCD75",
"I. c #92C47A",
"U. c #9BCB7A",
"Y. c #96C87B",
"T. c #9DD274",
"R. c #9BD67A",
"E. c #ABDD6E",
"W. c #A8D66D",
"Q. c #B4D86D",
"!. c #A2CE7A",
"~. c #A3D474",
"^. c #A5D973",
"/. c #ABDC73",
"(. c #A3D37B",
"). c #ACDB7A",
"_. c #ABD579",
"`. c #B3DE74",
"'. c #B3DB7C",
"]. c #BADD7D",
"[. c #B8DA77",
"{. c #B4C76B",
"}. c #AEE26E",
"|. c #B4E56E",
" X c #B9E66E",
".X c #AEE271",
"XX c #ABE678",
"oX c #B4E472",
"OX c #BBE573",
"+X c #B4EA74",
"@X c #BBE974",
"#X c #BDE37B",
"$X c #BDE97A",
"%X c #B4E47A",
"&X c #B9F179",
"*X c #AFF779",
"=X c #BAC05E",
"-X c #CECB5A",
";X c #FFCB51",
":X c #F5CB50",
">X c #C4D269",
",X c #E4CB63",
"<X c #C3E47B",
"1X c #CDEB7C",
"2X c #C5EA77",
"3X c #D2ED7D",
"4X c #D4EB75",
"5X c #CEF17A",
"6X c #D5F279",
"7X c #D8F27A",
"8X c #C2E56F",
"9X c #569583",
"0X c #599682",
"qX c #5D9981",
"wX c #629C81",
"eX c #689F80",
"rX c #67A080",
"tX c #6BA381",
"yX c #6FA689",
"uX c #73AA81",
"iX c #7BAE82",
"pX c #74A985",
"aX c #7DB283",
"sX c #7FB48A",
"dX c #88B985",
"fX c #96BE8E",
"gX c #8FC183",
"hX c #9CCC83",
"jX c #99C686",
"kX c #9AC593",
"lX c #99D384",
"zX c #A3CA87",
"xX c #A3D383",
"cX c #ABD584",
"vX c #B9D985",
"bX c #A2CE9D",
"nX c #BDEA81",
"mX c #ACD4A0",
"MX c #C3DF85",
"NX c #C8E683",
"BX c #D5EB85",
"VX c #DDF184",
"CX c #E4F48F",
"ZX c #C8E8B7",
/* pixels */
"9X9X9X9X9X9X9X9X9X9X9X0X9X0X9X0X0X9X9X0X0X9X0X9X0X9X9X0XqX9XqX9XqX9XqXqXqX0XqX9X0XqXqX0X0X0XqXqXqXqXqXqXqXqXqXqXqXwXqXqXqXqXqXqX",
"9X9X9X9X0X:.:.0X9X0X9X0X:.0X0X:.:.:.0X0X0XqX0XqXqXqXqXqXqX:.:.:.:.;.qXqXqXqXqX;.0XqXqXqXwX;.qXqXqXqXqXqXwX;.qXqXqXwXqXqXwXqXwXwX",
"0X0XqX0XqX0XqXqX;.qXqXqX;.qX;.;.qXqXqXqXqXqXqXqXqXqXqXwXqXqX>.qXwXqXwXqXqXwXwXwXqXwXwXqXwX>.;.wXwXqXwXwXqXwXwXeX>.>.wX>.;.wXrXwX",
"qXwXqXwXqXqX>.qX;.wX;.tXwXqXwXwXqXwXwXqX>.wXwXwXwXyXwXwX>.wXwX>.wXrXwXwXwXeXrX>.eXwXwXeX>.wXrXeXrXwXeXrXeX1.rXrX>.>.eX>.<.yXtXuX",
"wXwXqXwXwXwXwXwXwXwXwXeXeXrX;.rXeXwXwXeXeXrX1.>.eXpXrX>.,.>.>.>.1.,.eXrX>.pXsXwX>.eX,.eXeXeXeXeXrX1.rX1.rX1.tXrXrXrX<.1.uXsXkXsX",
"eXeXfXtX>.wXeX,.>.>.1.,.eXwXrX>.>.>.1.rXrXrXrXrXtXeXrX1.rX1.yXtXrXrXtXrXrXeXeXeXpXyXeXtX1.<.<.,.tX<.tXtXtXtX1.rX<.<.<.tXpXkXZXbX",
"rXeXdXtXeX,.eXeXtXtXtX<.tXtX1.pXuX,.1.<.rX1.<.rXtXrXrX<.<.<.<.uX1.<.<.<.<.tXtXtXdXpX1.<.tX2.<.2.<.tX<.<.2.2.2.iX2.<.2.2.yXgXbXkX",
"uXrXeXeX1.uXuX1.1.>.,.1.tXtXrXaXuX<.<.<.<.2.<.<.uX<.2.<.<.2.<.2.<.uX<.uX2.2.2.2.<.2.2.uX2.3.2.2.uXiX2.iXuX2.3.aX2.2.uXuXpXpXsXsX",
"iX3.2.2.MXCXCXBXNXcXfXu.3.2.uX,.<.3.<.2.2.<.uX<.2.2.2.2.uXuX2.uXuX2.2.uX3.dXiXuXuX3.3.uX3.3.uX3.3.2.pXdX4.3.3.2.3.3.3.3.3.4.aX4.",
"pX2.<.>.fXCXCXCXCXCXCXvX2.uX3.uXaX3.uX3.2.3.3.iX3.3.3.3.2.3.3.4.3.3.3.4.uX4.3.4.3.3.3.3.3.4.4.iX4.3.iXdX4.3.4.4.3.4.3.4.4.aXdX4.",
"MXvXcXzXfXBXCXp.iXiX3.2.3.3.3.3.3.3.4.3.3.3.3.3.4.3.iXiX3.4.4.4.4.4.4.3.4.4.3.iX4.4.4.4.4.4.4.4.4.4.4.4.4.4.3.iX5.5.aX3.4.4.3.dX",
"dXfXfXjXzXzXdX3.iXiX3.4.4.4.4.3.4.4.4.4.5.3.5.4.4.4.5.aX4.4.4.4.4.5.4.4.4.4.4.4.4.4.4.4.aX5.5.4.4.u.4.u.4.u.u.u.5.5.5.5.5.5.5.4.",
"sXaXiXiX3.3.5.4.4.4.4.iX4.4.4.4.5.4.5.iX5.5.5.5.4.5.5.5.4.u.4.4.5.5.5.5.u.4.4.u.u.4.4.4.u.i.u.u.u.4.u.u.u.u.u.i.u.u.u.u.u.u.5.u.",
"dXdXdXdXdX5.5.5.u.5.4.u.u.u.4.u.5.5.5.5.5.5.5.5.u.5.5.5.u.i.u.u.u.u.4.dXu.u.u.u.u.u.u.u.u.u.u.u.u.u.u.u.u.u.u.u.u.dXu.u.a.u.u.u.",
"gXdXdXi.dXu.u.u.5.u.u.u.u.i.u.u.u.u.u.u.u.u.u.u.u.u.u.u.dXdXu.u.u.u.u.u.u.u.u.u.u.u.u.u.u.i.dXa.a.u.u.a.u.i.i.i.p.p.i.p.i.a.i.i.",
"gXgXgXdXdXi.u.u.u.u.u.u.u.u.i.u.u.gXi.a.u.a.u.i.u.i.i.a.p.u.i.i.u.i.I.p.!._.p.Y.'.MXMXcXs.a.i.p.a.a.p.i.p.p.i.y.dXp.i.p.i.p.p.y.",
"jXgXgXgXp.p.i.i.i.i.i.i.i.i.i.i.i.i.i.i.i.i.i.y.p.a.a.i.a.i.i.p.u.U.BXMX_.vX].MXNXBXBXVXCXvXy.u.i.p.p.p.p.p.p.p.p.p.I.p.p.y.s.gX",
"jXjXgXgXgXgXp.p.p.a.i.i.p.y.i.p.s.p.i.a.p.p.p.p.p.p.p.I.I.p.p.p.p.p.!.BXcXa.p.p.i.i.p.I._.VXBXvXI.y.I.G.y.H.K.y.I.G.H.I.I.H.H.Y.",
"lXjXjXI.I.gXI.p.H.p.p.y.p.p.H.H.gXH.H.H.s.y.p.y.G.p.H.cXzXG.H.H.I.y.y.U.vX[.U.H.s.t.p.G.U.BXVX<XK.K.K.y.I.G.s.K.I.K.G.K.G.L.I.H.",
"lXjXlXJ.gXI.H.I.G.H.H.G.I.H.G.H.G.G.H.G.J.y.K.I.G.K.H.K.I.G.G.K.I.I.I.y.p.I.!.J.8.w.J.s.U.!.U.i.y.G.H.K.G.G.G.y.G.K.Y.I.Y.K.K.Y.",
"hXhXhXU.Y.Y.H.H.H.H.I.I.H.L.H.H.I.K.K.I.I.I.I.K.L.K.K.K.I.K.I.K.K.G.I.P.!.!.xXt.a m.J.G.p.P._.].].vX<X].].vXvX_.U.L.L.xXvXL.L.Y.",
"xXxXlXhXhXY.L.L.P.P.Y.U.Y.Y.L.U.L.I.K.K.K.K.L.L.s.s.L.L.L.K.L.L.!.'.].].~.!.).m.q.-XR.T./.]._.'.7XVXBXVXBX1X<X'.P.L.L.U.T.U.P.P.",
"xXxXxXU.P.L.T.(.^.).).lXU.U.U.U.P.Y.L.L.Y.L.L.R.r.Z R.L.L.P.P.].'.NX<X!.K.T.t.A w.4XNX<X<X!.L.P.P.[.BX3XBXNX<X].].'._.P.L.U.P.T.",
"xXxXxXU.P.T.(.^.).'.%X'.(.xXU.T.P.P.P.P.P.P.U.R.Z 8.T.P.P.P.P./.].[.].'.~.*X@.a q.Q.).^.~.~.~._.'.].3X1X1X3X7XVXVXVX7XBX2X~.T.T.",
"cXxX(.R.P.~.~.).%X%X#XnX(.(.(.T.P.P.T.T.T.T.T.P.v q.T.T.{.T.L.T.~.).'.[.#X{.h J q.W.#X<X<X1X1X<X1XBX1X1X3X3X3X3X3X3XBX1X1X^.T.W.",
"cXcX(.^.T.^./..X%X#XNXnX%X).).(.T.T.~.T.T.T.R.t.p 0.t.7.m.R.W./././.^.~.^.6.p J w.^.^.#X8X~.(.~.~.^.^./._./.^././.vX^.^.(.^.~.~.",
"cXXX).^.W./.`.+X$XnX<X&X'.cX)._.~.~.~.~.T.^.R.6.p g A a w.)..X}.].[.[.+X-Xp d 0.A.^.`.#X<X`.`.E.~.~.~.~.~.W.^.^.^.vX^.)./.^.^.^.",
"XXcX(.^././.oXoX$X$X<X$X).).).^.W.~.~.W.^.^.W.Z p A a 0.w..X/.}.`.`.[.+X7.p v J ,X$X8X2X<X2X<X[.^.E.E.E./.^./.E.oX%XE.E.E.E.E.E.",
").).)././.|.|.oX+X@X$X%X'.)././.^.W.^.^./..X=Xd g 0.v 0.q.E.E.}.oXQ.+X{.p d v 0.-X2X8X$X8X#XOXoXE.E.E.E.E.E.E.E..X.XoX.XE.}.}./.",
"%X).)././.E.|.OX+X+XoX)./.oX`.`.E.}..XW.W.XXr.i d S p 0.q.}.XX}.oX|.*X7.i d a 0.>X+X8X2X$XOX|.E.oX.X}.oXOX$XoX|.|..XoX}.}.}.oX}.",
".X/.%X.X}.E..XE.`./.`..XoXoX8X2XoXE.}.Z 7.+XZ i v S d A 0.m.r.m.{.+X{.p g p J 0. X X X|.|.E.|.|.+X|.1X7X7X7X6X6X6X4X4X2X5X2X2X2X",
"%XoX.XE.|.E.oX}.}.|.|.`.}.|.$X2X|.+XQ.v -XQ.p d p d d d p p p p m.*X7.p d h 0.0.A. X|.|.|.|.|.|.|.}.4X7X6X6X7X7X7X7X6X7X7X7X7X6X",
"oXoX|.|.|.|.|.|.|.|.|.|.|.|.@XOX X*X=XK -Xt.p d d g d h d d d i m.Q.d d d d v S q.|.|.}.|.|.|.|.|.|.oX6X7X8X X2X2X6X6X6X6X6X6X6X",
"|.oX|.|.|.|.|.oX|.|.|.|.|.|.|.|.|. Xr.p -X6.i d d d d g v g d d Z Z d d d h i A A.+X^.}.+X|.OX|.|.oX|.@X6X X|.+X|.|. X2X8X5X6X2X",
"|.@X|.|.|.|.oX+X=XC Q. X|.+X|.|. X X` A -Xf d d d d d d S J g d d d d d d v d A m.R.P./.|.|.|.}.+X@X X5X6X2X|. X|.|.|.|.|.|.E.P.",
" X+XOX+XOXOXoX*Xf.S 8X+X@XOXOX$X+XQ.f 8.m.g f f f f f f v 9.g g d f g g g 0.h S m.R.~.|. X.XY.OX5X5X4X6X5X6X@X|.|.|.|.+X|.T.K.L.",
"$X@X@XOX$X@X$X#XZ 8.>X@X8X8XNX2X&XS.g 8.f.f b b f b f f C 9.f f f f b f b 0.B F S.U.(.<X1X!.(.3X4X5X5X5X1X5XOX|.$X|. XoXT.K.I.I.",
"$X$X$X2X2X<X&Xm.N V $.8.>X&X$X$X&Xm.M V V M M M B M N b C 0.B b M M M l B 9.b 0.{.hX!.U.U.Y.'.6X5X4X1X6X6X2XoX X@X X).Y.G.L.I.I.",
"5XNX2X<X<X<XS.N n n C 8.k.S.k.f.$.V N N Z N N n n N N N n z.C b M Z M b Z B C 9.N.S.lXkXhXY.nX7X4X4X5X4X5X2X+XOX+X_.s.I.jXY.Y.jX",
"cXcXkXzXzXfX#.V $.$.#.#.N N n +.V #.#.V V V V V V V V V V $.C N C &.8.8.x.n.x.n.l.V.{.{.d.{.>Xk.n.B.B.Q.(.(.xXjXzXjXzXjXzXhXzXzX",
"kXkXkXkXkXd.f.%.f.f.$.h.$.$.%.%.%.$.$.%.%.#.$.$.$.#.$.#.$.#.V $.&.h.z.z.z.z.z.n.n.8.n.9.z.n.G M n C 8.V.jXgXjXkXhXjXkXzXhXzXbXzX",
"A.D.D.D.D.v.f.f.f.f.f.f.f.f.f.%.f.f.%.%.%.%.%.%.$.$.$.$.%.#.$.$.$.#.#.V #.n V n n m n #.#.n m m C C &.n.A.,X,X,X,X,X,X,X,X,X,X,X",
";XZ.Z.D.Z.C.V.V.V.C.b.b.V.b.C.b.b.b.v.v.j.c.g.j.c.g.f.j.c.g.g.j.g.z.g.g.g.g.c.f.h.z.h.h.h.z.z.z.N.M.M.B.Z.;X;X;X;X;X;X;X;X;X;X;X",
"D.D.D.D.D.C.D.D.F.V.V.V.V.F.V.C.C.C.C.C.C.C.b.C.V.b.F.D.C.C.C.B.Z.C.C.B.N.N.C.F.N.N.N.N.N.N.N.N.N.N.N.N.b.N.N.b.b.x.N.A.Z.Z.Z.;X",
"D.D.V.V.D.F.D.D.V.V.V.F.D.k.v.v.b.v.v.v.j.v.v.v.v.v.v.v.b.v.v.b.n.c.v.v.c.c.v.v.n.c.c.c.c.l.l.c.z.z.z.z.z.z.c.l.z.l.l.N.x.N.B.B.",
"b.b.b.b.V.b.b.b.b.v.b.j.f.f.` @.` ` ` ` O.` ` ` ` ` _ ` _ ` *.*.*.) _ _ _ _ _ _ _ c.x.l.x.l.l.l.l.l.l.l.l.l.z.z.-.z.z.-.-.z.z.-.",
"g.f.h.f.f.$.%.O.` @.O.@.@.O.` @.` ` ` ` ` ` ) ) _ ` ) ) ) ) _ _ _ ( ^ ^ ^ ^ ^ ^ T _ *.*.| _ _ _ _ ( | | +.$.-.-.l.z.-.z.z.z.-.z.",
"l.v.v.z.h.h.h.@.n @.` @.O.O.` ` ` ` _ ) ` ) ) ) ) _ / / / / ( ( ( ^ ^ ^ T U U Y U T Y Y P Y P P L Y I I I I T w ( z | |  .| l z ",
"c.c.-.c.c.c.c.l.c.&.l _ O.` _ _ | ) _ _ y / / u w / / T U u / T T T U P U U 6 Y P T 6 P U 6 6 5 P L I I I I I , , , , , , , , < ",
"&.&.-.-.-.&.+._ t | N O.l t y y t _ y _ y u ( / / / / T Y 5 I I I I I P 5 6 Y 5 L I I 5 5 5 5 5 , L , , , E I 1 , , , , , < < > ",
"-.-.+.*.| w t j ..+.-.+...+.&.+.+.=.&.+.=.+.-.-.-.&.G &.B +.| l ( R I 6 5 < , , , , P , 5 < , < , < < < > , 1 < < > % < < % % % ",
"] j t R w | ..=.+...( ] +.=.+.+.+.+.+.+.+.+.=.X.X.+.X.+.=.=.+.=.=.=.B +.l y 6 % < > > < < o > % % % < ; ; < % % % & o > % % % % ",
"e w r ] X.+. .t w w  .X.....X. .X.X.X... .X.z X.X.o.X...X. .o.o.X.z X.X.X.D x j % % % & % > o % + % & - ; - & ; > o o & % = ; ; ",
" . . .o.{ w e w j { o. . . . . .{  . .k {  .o.{ {  .{ { {  .k o.z o.z z z  .{ G 1 % ; - % % % % o % % ; - ; - - & % % & - % ; ; ",
"] ] j w q w j {  .k { j { { [ { { { k { { { k { { { x A B k z  .{ { { k { { ] G 0 O - ; % o % % % > % ; ; ; & & - + o & - % ; ; ",
"{ w q w ' { [ ' ] [ ' w ! { z { ' ' { j { ] [ j [ x 9 8 9 h h h z z k { { { ' A y o % % % % o > % o o & % > & ; ; % % ; & % ; ; ",
"R w ' ' [ ' R r ! { k x K c s c x x k ! ' [ j [ x 8 O # * $ * 0 h d h h K { ~ D f X O o + + o + o + + + o o # = - O O = $ + % = ",
"~ ' ' } } Q ~ } k h s e 1 = * - 4 9 d x x j Q j 3 + # # * * + + * $ = = & j [ { D x t 0 2 2 2 1 6 1 7 7 6 1 0 0 0 0 0 q e 0 e w ",
"Q ' ' ! ! ~ k c e : * * * # = = # * = 1 9 s K r 1 3 7 4 3 3 4 4 * = = = = R } ' } x H F G G G G G G H F F F H H 8.H H H F F 8.F ",
"! W W Q j 9 8 = * = $ # # = O o o # # O * = 1 9 r 9 r r r 9 r r 4 + = = * q } W ! W W ! ] [ ] { k  .z z z x x D x B D B D D D D ",
"W W ~ r 4 $ * = = = $ # $ *       . . X = # * + X X @ X + * + + 0 : = = * 3 } x x k k k [ ' ~ ~ ! ! W W W W W W ! W ! W Q ! ~ Q ",
"w 9 1 # # = * * * * # $ O     X X     O # # o         . X = * = $ 1 : 1 1 0 r 3 8 e 9 9 s s s c h x h x x x c k ! W ! ! ! ! ! ! ",
"r q q q q 4 3 3 : ; & O . . .       X * * X           X X = = # # * * = = $ = * * * * + @ @ X o X & : 1 1 8 8 9 s ~ W W W W W R ",
": : : : : 3 3 4 8 8 e 8 7 7 7 %   X X $ X   X       X   X = * = = = = = * * $ = = $ = O         . . # $ + * * * & q ~ r ~ ~ [ [ "
};
