/* XPM */
static char *_4a2d73fd7d4493788b3c1eccb7fbd992AhCNBLYiheYouGG[] = {
/* columns rows colors chars-per-pixel */
"64 64 243 2 ",
"   c #007466",
".  c #007B66",
"X  c #017468",
"o  c #017D68",
"O  c #8C1A3A",
"+  c #951E39",
"@  c #9C223B",
"#  c #962239",
"$  c #A4233C",
"%  c #AC243C",
"&  c #A42935",
"*  c #B3293C",
"=  c #B83639",
"-  c #B6362F",
";  c #A81D3C",
":  c #D93E27",
">  c #D93C2C",
",  c #D73B2B",
"<  c #CA3C37",
"1  c #D33B36",
"2  c #DE3E32",
"3  c #D23D39",
"4  c #DA3836",
"5  c #D1392F",
"6  c #E13E32",
"7  c #BD4232",
"8  c #FF5D1F",
"9  c #DC4326",
"0  c #DC422A",
"q  c #DE4B2A",
"w  c #D74729",
"e  c #DF512A",
"r  c #D4433B",
"t  c #D64A3D",
"y  c #D94B3B",
"u  c #DA4634",
"i  c #CB5638",
"p  c #DC543A",
"a  c #C94635",
"s  c #E44C25",
"d  c #E44C2C",
"f  c #E84F2E",
"g  c #E1462C",
"h  c #E45426",
"j  c #EC5425",
"k  c #E3552A",
"l  c #EC532C",
"z  c #ED5C2B",
"x  c #E75B28",
"c  c #F0562B",
"v  c #F45C2A",
"b  c #FA5E29",
"n  c #F95C25",
"m  c #E44432",
"M  c #E54B32",
"N  c #E94F30",
"B  c #EB5230",
"V  c #E45B33",
"C  c #E75934",
"Z  c #FE4325",
"A  c #E8652B",
"S  c #FD6326",
"D  c #F4622B",
"F  c #F66B2C",
"G  c #FB6D2C",
"H  c #FA6429",
"J  c #ED782B",
"K  c #F7712C",
"L  c #FA752B",
"P  c #F37B2C",
"I  c #F97B2D",
"U  c #FE7A26",
"Y  c #E86635",
"T  c #E8773A",
"R  c #F57A32",
"E  c #F76830",
"W  c #992242",
"Q  c #A62D44",
"!  c #B52C43",
"~  c #AA3647",
"^  c #BA3746",
"/  c #911E49",
"(  c #C73E41",
")  c #BB5347",
"_  c #9C794C",
"`  c #AB6844",
"'  c #C64445",
"]  c #D74B40",
"[  c #D65343",
"{  c #DB5A43",
"}  c #D85944",
"|  c #C75B4A",
" . c #D66946",
".. c #E47A46",
"X. c #008466",
"o. c #008C66",
"O. c #038369",
"+. c #038B69",
"@. c #0C8C67",
"#. c #009366",
"$. c #009C66",
"%. c #029469",
"&. c #019A68",
"*. c #09986C",
"=. c #139269",
"-. c #229C69",
";. c #01A366",
":. c #00AA67",
">. c #02A469",
",. c #02AB69",
"<. c #0AA66C",
"1. c #00B267",
"2. c #00BA66",
"3. c #01B369",
"4. c #01BC69",
"5. c #09B86E",
"6. c #0CB672",
"7. c #16AE73",
"8. c #31AD70",
"9. c #76AB5B",
"0. c #45B96E",
"q. c #4AB97A",
"w. c #53BD78",
"e. c #6FA657",
"r. c #02C566",
"t. c #01C36A",
"y. c #0AC969",
"u. c #13CC6A",
"i. c #1ACB68",
"p. c #1DD16B",
"a. c #1BD769",
"s. c #01C973",
"d. c #06D176",
"f. c #11CC73",
"g. c #28CD66",
"h. c #2CD46B",
"j. c #29D669",
"k. c #3BD66A",
"l. c #38D869",
"z. c #36DA74",
"x. c #24D877",
"c. c #2DE86F",
"v. c #55C36E",
"b. c #5AC76D",
"n. c #4BDB6C",
"m. c #44D86A",
"M. c #56DB6A",
"N. c #57C472",
"B. c #43DC74",
"V. c #49C364",
"C. c #68D96A",
"Z. c #60CD6F",
"A. c #57E26D",
"S. c #4BE676",
"D. c #5BE474",
"F. c #44E26F",
"G. c #64E26C",
"H. c #6CE36B",
"J. c #76E56B",
"K. c #68E674",
"L. c #78EA77",
"P. c #6EF17B",
"I. c #FE8B2C",
"U. c #FB872C",
"Y. c #FE9B2E",
"T. c #FE922D",
"R. c #F68534",
"E. c #FD9A31",
"W. c #FB9737",
"Q. c #EA813C",
"!. c #FEA52C",
"~. c #FDAC34",
"^. c #FCA735",
"/. c #FCB337",
"(. c #DE8C36",
"). c #FFD83C",
"_. c #FEE23D",
"`. c #91884D",
"'. c #9BAE5B",
"]. c #CE914D",
"[. c #F59044",
"{. c #F1B14F",
"}. c #CABC59",
"|. c #92D16B",
" X c #ACD468",
".X c #8EE969",
"XX c #86E868",
"oX c #94EC6B",
"OX c #9AED6C",
"+X c #94EA67",
"@X c #8CED73",
"#X c #84EC78",
"$X c #97ED73",
"%X c #88F17A",
"&X c #9CF174",
"*X c #9CF37B",
"=X c #95F47C",
"-X c #A3F57C",
";X c #A9F57D",
":X c #B0EF78",
">X c #85C25B",
",X c #D9CC54",
"<X c #F5CB45",
"1X c #DBEC5E",
"2X c #DCEC60",
"3X c #C6F47C",
"4X c #E2F575",
"5X c #D8E56B",
"6X c #55BA81",
"7X c #4FB880",
"8X c #10DB84",
"9X c #3CF588",
"0X c #3CED8F",
"qX c #23E097",
"wX c #47F88A",
"eX c #56F789",
"rX c #46FB92",
"tX c #57F495",
"yX c #79F686",
"uX c #6BF78A",
"iX c #5CECB1",
"pX c #76F4C4",
"aX c #88F785",
"sX c #98F887",
"dX c #A7F987",
"fX c #B5F787",
"gX c #AFF98E",
"hX c #C6FB8B",
"jX c #C7FD96",
"kX c #D9FC96",
"lX c #DAFA8C",
"zX c #E7F985",
"xX c #FDFF84",
"cX c #F4FD83",
"vX c #EBFC98",
"bX c #F3FE9D",
"nX c #F7FD95",
"mX c #DBFDA4",
"MX c #E5FEA4",
"NX c #F8FEA7",
"BX c #F7FEB0",
"VX c #87F6C7",
"CX c #DDFEE9",
/* pixels */
"                                                                                                                                ",
"    X X                         X X           X                                                                                 ",
"  X X X     . X                     . X                                         .   .                         .                 ",
".   . . . .   .     . . . .     .   . .   . .   . . . X . . . .   . . . . .   .   . . .   . .   . . . X . . . .     . . . .     ",
". . . . . . . . . . . . . . . . . . . . . . . . . . . . . . . . O.O.. . . . . . . . . . . . . . . . . . o o . . . . . . . . . . ",
". O.O.. X.. . . . . X.. . X.. . . . . . X.. . . . . . . . . . . . . . . . X.. . . O.. . . X.. . . . .   . X.. . X.. . . . . . X.",
"O.X.X.X.X.. X.. X.X.X.. X.X.X.X.X.X.X.X.X.. X.X.X.X.X.X.X.X.X.X.X.X.X.X.X.. X.X.. X.X.X.X.O.X.X.O.=.-.-.=.. . X.X.X.X.X.. X.X.X.",
"X.O.X.X.X.X.@.@.X.X.X.X.X.X.X.O.X.X.X.X.X.X.X.X.X.X.X.X.X.X.X.X.X.X.X.X.X.X.@.X.X.X.X.X.X.O.X.X.8.b.b.b.Z.0.@.X.X.X.X.X.X.X.X.X.",
"X.X.o.X.X.X.o.o.X.+.o.X.o.O.o.+.X.X.o.X.+.O.X.o.X.X.o.X.X.X.X.o.X.X.X.o.o.o.X.X.X.X.X.o.o.X.X.0.N.b.b.0.w.Z.w.+.X.X.X.X.o.X.X.o.",
"o.o.o.o.o.o.o.o.+.%.o.o.+.o.+.o.o.o.o.o.*.+.o.o.o.o.o.o.o.o.o.o.o.o.o.o.+.+.o.o.o.o.o.o.o.X.-.Z.v.v.b.v.w.w.b.8.X.@.o.o.o.o.X.o.",
"o.o.#.o.o.o.o.o.o.o.o.o.o.o.o.o.*.o.#.o.o.o.o.o.o.o.o.o.o.o.o.o.o.o.o.o.o.+.o.#.o.o.o.+.#.o.0.v.N.v.v.b.b.v.N.7X#.o.o.o.o.o.o.#.",
"#.%.#.o.#.#.#.o.%.%.#.o.#.#.#.#.%.#.#.#.#.o.#.#.#.#.#.#.#.#.#.#.#.#.o.#.#.#.#.#.#.#.#.#.#.o.0.b.w.N.w.w.b.w.6X6X*.#.#.#.#.#.o.#.",
"#.#.#.#.%.$.#.#.*.*.#.#.#.#.#.#.#.#.#.#.#.#.#.#.#.#.#.%.#.#.%.#.#.#.#.#.#.$.#.#.#.#.#.#.$.#.0.b.v.v.v.q.q.7X6X7X&.#.&.#.#.#.#.#.",
"$.&.*.<.&.$.&.&.$.$.#.$.$.$.#.$.$.$.&.$.$.&.&.$.&.&.&.$.$.&.&.&.$.$.%.$.&.&.&.&.&.$.&.&.&.#.8.Z.v.v.v.N.6Xq.6X8.%.%.&.&.$.$.$.$.",
"&.$.$.;.$.*.$.$.;.$.$.$.$.$.>.<.$.$.$.$.$.$.$.$.$.$.$.$.$.$.$.$.$.$.$.$.$.$.$.$.$.$.$.$.;.$.;.w.N.N.7X7X7X6X6X<.$.$.$.$.$.$.$.$.",
";.;.;.>.$.>.;.;.$.>.;.;.;.$.<.<.$.;.;.$.;.>.$.;.;.$.;.;.;.$.;.;.;.$.;.;.$.;.;.$.;.;.;.$.$.>.$.<.q.6X6X6X6Xq.-.;.;.;.;.$.>.$.;.;.",
">.>.;.;.;.>.;.>.;.7.>.;.;.;.:.;.;.;.6.<.>.>.>.>.;.,.,.:.;.;.;.;.>.;.;.;.;.>.>.>.>.>.;.;.>.;.>.:.>.7.8.8.7.<.:.;.;.;.;.;.;.;.;.;.",
">.,.:.:.:.>.:.:.>.:.,.:.:.,.>.<.:.,.7.,.>.,.3.,.>.,.>.>.>.:.:.:.:.:.:.:.:.,.>.,.:.:.:.:.:.:.:.>.,.>.,.,.;.:.:.<.:.:.:.:.:.:.:.:.",
",.:.,.,.,.,.,.,.,.:.:.3.,.3.6.5.,.3.:.:.>.5.:.,.,.,.:.,.3.>.3.,.:.,.,.,.,.,.,.,.,.,.>.,.,.,.,.,.:.,.,.,.:.:.,.,.:.:.,.,.,.,.,.:.",
"3.3.3.,.1.1.,.1.,.1.1.,.2.,.6.,.3.6.1.1.3.1.3.,.,.3.1.1.1.3.1.,.1.1.3.1.,.1.3.3.1.1.1.1.1.1.,.1.1.1.,.3.1.1.1.,.1.1.1.,.1.1.,.1.",
"1.3.1.3.1.1.1.1.1.1.1.1.1.1.1.1.2.1.1.1.2.3.3.2.1.1.1.3.3.3.3.3.1.3.3.3.5.4.3.6.5.3.5.3.6.3.3.3.1.1.3.3.3.3.2.3.1.1.1.2.2.1.2.1.",
"2.2.2.2.2.2.2.2.2.2.2.2.2.2.2.1.2.2.5.2.3.2.2.2.2.2.2.2.4.4.4.3.2.2.2.2.5.4.s.s.t.t.4.2.2.2.2.2.2.2.4.3.2.2.3.2.2.2.2.2.1.2.2.1.",
"5.2.2.2.2.2.r.2.2.4.5.f.4.2.r.y.i.5.2.2.2.2.2.2.4.4.4.4.4.t.iXqXr.2.4.t.s.s.d.d.d.d.s.4.t.2.2.r.4.2.4.t.4.2.t.2.4.4.2.4.4.2.2.r.",
"H.m.i.r.r.2.r.r.t.r.4.t.g.M.J.XXXX+XXXC.m.u.r.4.t.t.t.4.t.t.0XqXt.t.t.t.s.8XqXiXqXd.s.s.r.r.s.r.t.r.t.t.r.4.t.t.r.t.t.t.r.t.4.r.",
"m.G.G.M.g.r.r.r.r.r.g.H.XX+X+X+X+X+X+X+X+X+XA.y.r.r.r.r.t.r.r.r.r.r.r.s.s.8XpXCXVX8Xf.y.r.r.r.y.r.t.t.y.y.r.r.t.t.r.y.r.r.r.t.t.",
"y.i.l.m.H.M.l.u.y.A.OXOX.XJ.J.XX+X+X+X+X.X+X+X+Xl.r.u.u.y.y.u.u.y.y.u.f.u.8XVXCXVX8Xf.u.u.u.y.y.u.u.r.4.r.r.r.t.r.r.t.u.p.u.r.y.",
"j.a.i.a.j.k.G.M.A.oX+X+XoXOX.XH.H.XX+X+XoXoX.X+XoXm.u.a.p.p.p.j.g.p.p.p.h.8X0XtXqXx.x.i.i.i.g.u.i.i.m.J.@X$X&X$X#XL.m.g.u.y.V.`.",
"j.j.j.j.j.j.x.J.oXG.J.oXoXOXoXOXJ.G.G.XXoXoXoXoXoXOXm.j.h.j.j.h.h.h.j.g.h.z.z.h.z.z.h.z.g.j.a.9.g.H.xXxXxXxXxXxXxXxXxXzX3XL.Q.Z ",
"z.z.z.B.B.l.A.&X&X$XH.H.*XOX&XoX&XoXH.A.G.XX@XoXoXOXXXl.l.z.k.k.z.k.k.k.B.B.B.B.B.k.m.B.m.h.Z.H e.L.4XxX4XxXcXcX3XC.J.H.%X{.n u ",
"D.S.S.S.S.S.@X-X&X&X-X.X@X@X&X&X@X@X&X@XK.D.K.J.$XOXOXG.n.S.n.F.n.n.n.n.n.n.B.m.n.B.m.n.k.Z.[.Z ` j.:X4XoX3XxXzXn.j.l.a.9.G H 1 ",
"#XP.S.D.D.K.-X-X-X*X&X-X*X%X%X@X&X@X#X@X*X@XL.K.K.L.&X$XA.D.K.A.A.D.D.A.M.F.>X'.A.M.M.n.A.[.S 6 _ D.3XA.i.3XxXH.j.m.l.C.G n l 1 ",
"bXvXgXuXP.L.P.%X*X-X-X*X*X-X&X%X%X*X=X%X%X%X@X*X*X#X@X$XK.G.D.G.G.G.G.G.A.|.F q C.G.l.yX{.n E 4 | 5XG.j.M.4X+Xj.m.l.F.T n S u 1 ",
"bXNXbXaXP.%XsX%XP.aXsX;X-X*X-X;X-X*X*X&X=XL.dXbXnXnXvXlXhXfXsX#XfXlXzXjXdXP H 4 '.c.c.|.G G e 3 4 < V.l.m.C.l.k.m.j.].8 D v 1 1 ",
"kXvXdXsXaXyXyX=X;X=XyXL.sXsXaXsX*X*X*XsX-X*XkXnXvXvXnXnXnXnXnXnXnXnXgX#X[.U Y ] | `.9.Q.S G M z r 4 9.c.l.k.m.j.c.'.8 S S w 1 1 ",
"lXmXdXsXsXsXyXyXyXdXdXsXuXP.aXsXgXjXkXvXNXvXNXbXvXzXfX*X:X:XfXhXzXjXZ.(.U I t Y y 4 c L U G U D 1 4 ) ` ` ` a _ e.6 8 S m < 3 1 ",
"kXNXNXmXhXsXsXsXaXyXyXdXkXmXMXNXNXNXNXzXsXeXdXlXfXP.z.P.%X:X,X].}.'.E I U.V K L ] ] L U U G G j 1 r 4 > 4 4 4 4 , , 8 f 1 1 1 1 ",
"eXuXvXMXBXgXdXsXsXdXgXmXBXNXkXjXfXdXaXuXc.wX9XeXwX9XS.9X$XW.E ] ].R R T.Y Y I.F ] V U I C Y U k r r 3 r 1 r 3 3 3 1 3 1 1 1 1 1 ",
"wX9XuXfXjXjXjXmXMXmXBXBXjXsXyXaXaXtX0X9XeXwXwXS.z.rX9X XE.Y } } R R U.R { I.U.Y t V U V 3 A E p 3 r r 1 r r 3 4 3 4 < 1 1 1 1 < ",
"rXwX9XeXtXuXgXjXjXgXaXaXaXdXyXeXrXrXwX9X9X9X9XeXuX#X,XR.T } { T.W.Y T [ Y I.P ] y ] t r r t r r r 1 r u ( % % < 1 1 1 1 3 1 4 1 ",
"wXwXrXrXrX9XrXuXsXgXgXsXaXuXeXwX9X9XeXL.|. X,X{.W.R Y | { } R.Y. .[ [ [ Y T.p ] y t y t t r r r r r r r ! % + = 4 1 1 1 1 1 1 1 ",
"eXrXrXrXrXrXrXrXeXuXtXtXrXrXwXwXuX X{./.!.!.U.T { }  .{ { T E.{ [ } { ] I R ] { t y y t t t r r ] 3 u ' $ * # * 4 3 1 1 3 1 < 1 ",
"{.2X1X2X2X2X1X2X1X1X2X2X1X1X1X,X/.!./.[.~.T } | } [ } } R.!.R.} { p [ p R y [ ' t y y r r u r y ( $ = * % % @ * 3 3 1 5 1 1 1 1 ",
").)._.)._._._._._._._.<X_._.).).)._. . .).).).{.[...T Q.Y.T.R.p [ [ [ p [ { ' @ * t r t r r r ] Q ; + & $ + @ ~ % @ 1 u 1 1 1 4 ",
"^.^././././././././././././././.{.| ! Q ) ~.~.!.^.Y.E.Y.T.U.R.R.R R T ' ^ ) & @ W a C p p u C ' ; $ + $ % + $ * $ O w S b b S n ",
"E.Y.Y.Y.E.E.E.^.~./.^.E.E.^.[...' ! Q ~ ~ i i U.T.I.T.T.I.I.I.I.I.I.Y ' = @ # # # = U U L U Y * % $ # $ + O % * # O - 8 b n 8 v ",
"W.T.Y.Y.E.E.E.Y.!.~.^.W.Y...^ ^ ~ Q ~ ) Q W / a J A A A A A A A x A x A x A a < 5 a w s y ' * % % $ # # @ = ! % @ # + & : , : , ",
"J J R.J R.J P J P J J J J J J A  .i = a = 7 7 a k p y M e u q e h k k k k C z A x z z N = * * $ # + O O ~ ^ * * + + # O 5 c j f ",
"p e V p e V V V V V V A p V C A C D z A A A Y Y z Y C Y C C C C k k k k k k h h e h h h s q w w - & & & % ; % + O O O O # b S b ",
"U.I I I R I R.P I I P R.I R I I U P L L P I L L L L L P L G L L F E E E E D H D D D D D v l c z j s f j w * & & & - < w q v b v ",
"L L K L K U L L L I L K L L L L K K K K K F K G G F F F F F H D F F G G E F D D D D D S D S D S n b H n b b b b b b b b b v c b ",
"D j x k h q e d e e e k e e h x x x x x x x A D D D D D D D D D D D D D D b v v j n v c n c c c c c c v b c v b b v b n c b b v ",
"w > u u u M d l l z z z D D D v D z D v v D v D D v b D D v D v v v v v v v b b v b b c b b v b H H D n c v j j j j f j j j j j ",
"c z v D z D D D D D v D v D b v v v D b D c v c z z j j j j j s d s s s s s s s s s s s s g 9 9 0 9 9 : : : : > > > > > > , , > ",
"c z c c c z c c c c c j j h s s s s g 9 9 9 9 : : : > > 4 > > > 0 > 2 0 > u > > > > 2 0 0 m g m M m m M M m m m m m m m m m 6 6 ",
"j l d f d l l j c c l j j h d d d g d m d m m f d f f l f l l l c l c c j c l l l l l c c c c c c c j c c v n n b c l c l c c l ",
"H S S H S l l l B l l l l l z l c j l c l c c c j c c l l j l c l l l l l c l c l l l l l j l l l l c l c c c c z j j l j j j f ",
"v v v c c l l l l l l f l l l f f l f l l f f l f l f l l l B l l l l l l B l l l f l l l B l B f s g g 9 0 : 9 : : : : : : > > ",
"f f l l l f f B N l l B N B f B l l l N B B B B l B B B N B N B l l B B B B B B l l l f f d d s 9 : : > 4 2 2 2 2 2 2 2 2 6 2 2 ",
"N f N N f N N N f N N B f f N f d f f d g s g d d d d d d d d d d d d d d d 0 q 9 9 : : : > : 4 > > 2 u 2 2 2 2 2 2 2 2 6 u 2 2 ",
"d f d f d d d d N d N d N N N N N N B f g 0 0 > > , > > : > : > > > , , , > : 4 4 2 2 6 6 2 2 2 6 6 2 2 6 2 6 > 2 2 2 2 2 4 2 2 ",
"N N M M d M N M d d M q q 0 d 0 0 0 0 9 0 0 0 : 2 2 6 2 6 2 6 2 6 u 2 2 2 2 2 2 2 2 2 2 2 2 2 2 2 2 2 2 2 2 2 2 2 2 2 2 2 2 2 2 ",
"0 0 9 9 , : : : , , , > : > : > > > > 6 2 2 6 6 2 2 2 2 2 2 2 2 2 2 2 2 2 2 2 m 6 6 2 2 2 2 2 2 2 2 2 2 2 2 2 2 2 2 2 6 2 2 2 2 ",
"> 2 4 > 2 2 2 2 u 6 2 6 2 6 u 6 u 6 2 2 6 2 2 > 2 2 2 2 2 2 2 2 2 2 2 2 2 2 2 2 2 u 2 2 2 2 2 2 2 6 2 2 2 2 2 m 2 2 2 2 2 2 2 2 ",
"6 6 u 6 2 2 2 2 2 2 2 2 2 2 2 2 2 2 2 2 2 2 2 2 2 2 2 2 2 2 2 2 2 2 2 2 2 2 2 2 2 2 2 2 2 2 2 6 2 > 2 2 2 2 2 > 2 2 2 2 2 2 2 2 "
};
