/* XPM */
static char *_d60927a44d84415bb95aa429629277avJciiwKlNcgUBXni[] = {
/* columns rows colors chars-per-pixel */
"64 64 249 2 ",
"   c #7B0426",
".  c #76002A",
"X  c #7A002B",
"o  c #7C0825",
"O  c #7B0131",
"+  c #8C1B1D",
"@  c #921C1B",
"#  c #962519",
"$  c #8C2119",
"%  c #B53C1C",
"&  c #AB331C",
"*  c #820C25",
"=  c #82012E",
"-  c #89092B",
";  c #960B2E",
":  c #891323",
">  c #991829",
",  c #840131",
"<  c #8C0034",
"1  c #8E0138",
"2  c #940036",
"3  c #990335",
"4  c #930138",
"5  c #990238",
"6  c #9A0B34",
"7  c #9D1432",
"8  c #A61C2B",
"9  c #A71732",
"0  c #A51232",
"q  c #982125",
"w  c #AA2827",
"e  c #B5292C",
"r  c #AE3323",
"t  c #BC3D2B",
"y  c #B73727",
"u  c #AC263A",
"i  c #B32A3A",
"p  c #BA3738",
"a  c #A63136",
"s  c #C43B2C",
"d  c #C33D38",
"f  c #B7411E",
"g  c #BB4129",
"h  c #BB433A",
"j  c #B86B37",
"k  c #CF4F19",
"l  c #F07619",
"z  c #C64B26",
"x  c #C94D25",
"c  c #C2452B",
"v  c #C54A29",
"b  c #CA4C2A",
"n  c #C84427",
"m  c #CB5226",
"M  c #CC572B",
"N  c #D35B2B",
"B  c #D65B26",
"V  c #CA4638",
"C  c #D24A3E",
"Z  c #CC5733",
"A  c #D55835",
"S  c #D14B2B",
"D  c #DB642A",
"F  c #D86629",
"G  c #D96737",
"H  c #CF6A33",
"J  c #E36A27",
"K  c #EA782B",
"L  c #E36935",
"P  c #EB7633",
"I  c #F57B2A",
"U  c #DE661E",
"Y  c #AF2641",
"T  c #B62A43",
"R  c #BB3141",
"E  c #C53B44",
"W  c #CA3D46",
"Q  c #CA3C49",
"!  c #C4334A",
"~  c #B35041",
"^  c #9E694A",
"/  c #CD4344",
"(  c #CC4844",
")  c #D14644",
"_  c #D24B43",
"`  c #D14248",
"'  c #D65443",
"]  c #D55A44",
"[  c #DA5D46",
"{  c #D85744",
"}  c #DB6346",
"|  c #DB6349",
" . c #DE6D49",
".. c #D86B45",
"X. c #DB7742",
"o. c #C97141",
"O. c #E1764B",
"+. c #E37B4C",
"@. c #E17347",
"#. c #E47E51",
"$. c #E16F4B",
"%. c #59967E",
"&. c #5D997F",
"*. c #57957E",
"=. c #639D7E",
"-. c #679F7B",
";. c #6CA47D",
":. c #69A27A",
">. c #71A67D",
",. c #75AB7C",
"<. c #7AAE7D",
"1. c #73A878",
"2. c #7DB27C",
"3. c #7AB57E",
"4. c #F78612",
"5. c #D68930",
"6. c #EB832D",
"7. c #F3832D",
"8. c #F88729",
"9. c #F59A36",
"0. c #F19233",
"q. c #F3A63C",
"w. c #AB9450",
"e. c #B2AF59",
"r. c #82B57C",
"t. c #85B97B",
"y. c #8ABC7A",
"u. c #88BC75",
"i. c #94BC79",
"p. c #91AA6B",
"a. c #ACB667",
"s. c #D79146",
"d. c #E5824D",
"f. c #EA8A49",
"g. c #ED934B",
"h. c #E89A4A",
"j. c #E98D54",
"k. c #E58552",
"l. c #EB9453",
"z. c #F19B4C",
"x. c #EBA748",
"c. c #EDA659",
"v. c #F2AA55",
"b. c #F2A654",
"n. c #F0B651",
"m. c #EEA761",
"M. c #F1A862",
"N. c #CCB254",
"B. c #8EC277",
"V. c #8CC37B",
"C. c #93C47C",
"Z. c #9CCC7B",
"A. c #95C777",
"S. c #9DD478",
"D. c #9EC96B",
"F. c #A6D96D",
"G. c #A4CD7D",
"H. c #A3D574",
"J. c #ADDC7C",
"K. c #A7D877",
"L. c #B5DA7C",
"P. c #BADD7C",
"I. c #B3DF76",
"U. c #B9D066",
"Y. c #ACE276",
"T. c #B4E574",
"R. c #BBE575",
"E. c #BAE976",
"W. c #B4E37B",
"Q. c #BCE27B",
"!. c #BDEA7B",
"~. c #B5E975",
"^. c #B3E26D",
"/. c #AAD169",
"(. c #D2CA58",
"). c #FCC85B",
"_. c #F8D25D",
"`. c #EEC652",
"'. c #C3EA75",
"]. c #C2E47B",
"[. c #C3EB7C",
"{. c #C4E774",
"}. c #C9EB73",
"|. c #E9D364",
" X c #4D8F83",
".X c #508F84",
"XX c #4E9083",
"oX c #549382",
"OX c #599682",
"+X c #5D9A81",
"@X c #639D82",
"#X c #689F80",
"$X c #66A182",
"%X c #6BA482",
"&X c #6AA787",
"*X c #71A783",
"=X c #73AA83",
"-X c #7AAE81",
";X c #77AD89",
":X c #7CB283",
">X c #7BB489",
",X c #7BAF91",
"<X c #82B583",
"1X c #85BB83",
"2X c #8BBB84",
"3X c #88BA8B",
"4X c #88BA90",
"5X c #91BC87",
"6X c #A2BE83",
"7X c #8CC286",
"8X c #96CA84",
"9X c #9DCC84",
"0X c #94C38B",
"qX c #99C588",
"wX c #9CD187",
"eX c #99C594",
"rX c #8FC291",
"tX c #A4C889",
"yX c #A4D484",
"uX c #ACDC84",
"iX c #A4D489",
"pX c #ADDB8B",
"aX c #ABD585",
"sX c #B2DD84",
"dX c #BDDC83",
"fX c #B2DD8C",
"gX c #B9D988",
"hX c #A3CB97",
"jX c #B3D893",
"kX c #AFE084",
"lX c #B5E383",
"zX c #BBE584",
"xX c #B5E28B",
"cX c #BAE58A",
"vX c #BCE886",
"bX c #BBE090",
"nX c #B7DFA9",
"mX c #C2DE83",
"MX c #C6DF8A",
"NX c #C1DB91",
"BX c #C6E686",
"VX c #D6EC8D",
"CX c #CAE692",
"ZX c #D6EC93",
"AX c #DDF294",
"SX c #D0F389",
"DX c #E4F595",
"FX c #E5F598",
"GX c #C6E9AF",
/* pixels */
".X X X X X.X.X X X.X X X X.X.X.XXXXXoX.XoX.XoXXXoXoXoXoXoX.XoXoX.XoXoXoXoXoX.XoXoXoXoXoXoXoXoXoXoXoX&X,XoXoXoXoXoXoXoXOXoXOXoXOX",
".XXXoX.X X X.XoX.XoX*.oX.X.X*..XoXoX.X.XXXoXoXoXoX.XoXXX.XoX.XoXoX*.oXoXoX.XoXoXoXoXoXoXoXoXoXoXoXoX+X@XoXoXoXOXoXOXOXOXOXoXOXoX",
"oXoXoXoXoXoX.X*.oXoXoXoXoX.XoXoXoXOXoXoXoXoX*.oXOXoXoXOXOXOXOXoXoXoXOXOXoX@X@XoXOXOXOXoXOXoX%.OXOXoXoXOXOXOXOXOX%.+X%.+XOXOX+XOX",
"oXoXoXoXOXoXOXoXoX%.oXOXoX&X+XoXOXOXOXoXOXOXoXOXoXOXOXOXOX+X+X*.@XOXOXOXOX&X,XOX%.OXOX+X+X+X+X+X+X+X@X+X+X@X$X+X+X+X+X+X+X@X+X+X",
"OXOX%.oX+X+X*.OX%.%.OX+XOX@X@XOXOXOXOXOXOX+X+X+X&X+X@X&.&.&.+X&.#X@XOX&X@XOX+X@X@X@XOX4X;XOX:.+X@X@X$X$X$X$X$X$X$X$X$X+X,X>X+X@X",
"&.+X@X+X+X+X+XOX+X+X+X+X&.&.&.@X&.@X@X=.@X@X@X$X&X&X@X@X@X=.+X@X@X+X@X&X@X@X@X@X@X&.=.%X$X+X:.$X%X%X=X=X;X&X%X%X%X&X&X%X&X&X@X:.",
"=.+X+X@X+X+X+X@X@X+X@X=.@X@X@X=.@X@X@X@X@X&X*X;X;X&X&X%X@X@X@X#X@X@X@X=.=.#X#X@X=.%X:.=.:.=.:.1.1.1.<.:X<X<X<X>X=X;X=X=X*X%X=X%X",
"@X=.=.@X=.*X;X=.@X=.@X@X@X=.@X=.=.=.@X#X%X=X,X4X4X,X,X;X%X-.%X=.-.=.@X%X;.%X%X%X;.*X-.:.:.:.;.1.,.,.<.-X>X3X2X3X1X;X=X;X;X=X&X*X",
"$X:.$X$X$X=X;X:.;.$X-.#X#X;.#X%X$X%X%X%X=X<X4XeXeXrX4X=X*X%X:.%X%X%X;.:.*X%X-.;.-.-.:.:.>.1.1.<.2.2.:X2.<X2X7X0XqX8X5X=X;X%X;X*X",
"$X;.$X;.$X$X:.%X%X;.;.%X%X%X;.;.>.%X>.=X;X4XrXnXGXhXrX>X=X*X%X;.*X>.%X*X;.>.*X:.-.:.1.1.,.1X:X1X2.:Xt.t.1X7XbXFXFXFXZXCXjXjXqX1X",
">.%X;.*X;.;.=X;.-.;.=X;X;.;.;.*X>.;.>.;X>X3XeXnXGXhX0X3X=X*X*X>.=X;.>.*X>.*X:.-.1.1.1.1.,.2.5X5X7X7X7X7Xt.7XZXDXCXyXiXsXjXjXjXNX",
"6.1.&X>.;.*X;.=X*X-XhXrX>.*X=X=X;.>.*X*X>X<X4XhXhXhX3X<X>X,.>.*X,.=X>.>.>.,.1.-.:.1.1.2.r.<X1X3X0X0X0X0X8X8XZXAXVX7X7XC.8X2X<X<X",
"4.4.p.:.,.,.:X,.;.-XeX3X,.>.=X<.>.,.,.-X;X<X3XeXrX4X3X:X<.<.-X,.,.,.,.,.r.qX5Xi.t.2.<.,.2XBXMXaXwXqXqXwXwXwXCXFXFXZXyX8X9XyX5X1X",
"U 4.4.p.&X,.>X=X<X,.<.-X-X<.<.,.-X<.<.-X-X<X<X<X4X4X<X:X<.<.<.<.<.<.<.,.i.MXVXCXCXMXgXgXyXgXVXAXVXCXjXiXhXwXjXFXFXDXDXCXyXyXtX3X",
"f k U l w.w.w.p.eX,.<.<.-X<.<.<.-X<.<.<.<.<X<Xr.<X<X1X<X<.2.<.<.2.2.2.2.-X2.yXBXgX5X9XfXCXZXZXZXCXZXAXAXCXbXCXFXFXFXDXFXAXsXyX7X",
"f f % f k k k w.>Xr.<.r.<.0X1X2.2.2.2.<.r.<.r.<X<.r.2.2.<.2.<.,.2.2.<.<.2.2.1.G.MXyXC.2XqXiXbXZXjXwXiXfXbXZXZXAXAXDXDXDXDXDXzXwX",
"f f % # f f f j 2.r.r.2.r.t.r.r.<.r.r.r.r.r.r.r.r.r.2Xt.C.tX6XqXC.5Xi.i.i.i.qXgXMXBXBX9X8X8X8XwXiXwXwXwXwXwXwXkXcXCXZXVXAXAXzXyX",
"% f f # f f f H u.r.r.r.r.r.r.r.r.r.r.r.r.r.r.r.r.2XeXL.mXmXMXmXmXMXmXmXBXMXBXBXBXMXVXBXV.8XwXtXwXiXiXiXkXwXpXwXiXxXfXxXxXkXlXkX",
"& % & # & f f k p.t.u.3.r.t.t.r.t.t.t.t.t.t.t.t.5Xu.t.C.dXmXmXdXmXdXmXmXmXMXBXBXmXmXsXZ.C.8XiXpXpXpXfXfXfXpXkXkXxXxXxXxXxXlXlXlX",
"& % & $ & f f f e.t.u.3.u.t.u.u.u.t.t.u.y.t.y.t.y.t.u.t.C.mXdXdXdXmXgXG.C.A.C.C.Z.9XZ.9XwXwXwXpXfXfXfXjXfXxXfXxXxXxXcXcXxXxXW.lX",
"r r r @ # # # & 5.V.t.V.y.u.V.B.t.u.y.y.y.u.C.V.y.y.y.V.y.G.dXdXdXmXC.t.u.u.V.C.8X9XyXyXiXuXaXyXpXfXfXfXxXxXxXcXxXcXcXcXzXcXlXlX",
"w r r @ $ $ $ $ H B.V.V.V.V.D.A.y.G.G.A.B.i.y.C.B.B.B.B.B.u.L.mXdXmXG.u.B.u.B.A.Z.G.yXyXiXaXpXfXpXpXkXxXxXcXcXcXcXcXvXvXvXvXvXvX",
"w r w @ @ & & & m D.V.C.e.s.0.e.G.dXaXL.L.L.G.C.B.B.A.B.B.G.mXP.mXP.].G.B.A.B.V.V.Z.G.yXuXuXuXxXxXkXkXkXfXxXxXcXvXvXvXvXvXlX!.W.",
"w w w @ @ w & & % e.V.A.5.8.4.x.yXL.L.L.L.L.P.L.K.Z.B.B.A.G.Q.dXP.mXP.BXK.A.Z.S.A.A.Z.K.uXsXsXlXxXxXxXxXkXkXkXkXlXlXlXlXW.W.Y.J.",
"w w w : + w w r w w.A.i.H 8.8.8./.sXL.L.L.P.L.P.P.P.sXG.D.B.L.P.BXdXmXP.BXG.Z.H.S.A.A.S.S.J.kXxXcXvXvXvXvXvXvXlXlXlXlXlXW.Y.Y.kX",
"8 w w : + w w w w j S.a.m 6.8.8.N.K.L.L.P.L.P.P.L.P.P.Q.L.L.P.P.Q.Q.].].].L.Z.H.S.S.D.S.S.J.kXJ.kXkXxXvXvXvXvXvXlXW.W.W.W.W.W.J.",
"8 8 8 : + > q q q f S.a.x K 7.I 0.H.L.L.P.P.P.P.P.P.P.Q.Q.Q.Q.P.Q.Q.].].].{.K.K.K.S.S.S.H.Y.cXlXW.Y.W.kXkXlXlXW.lXlX!.W.W.T.Y.uX",
": : : : : 8 8 w 8 w a.D.x F 7.7.I U.K.I.P.I.Q.P.P.P.Q.Q.Q.Q.Q.].Q.].P.].P.].Q.H.F.K.S.S.H.K.Y.vXvXvXlXvXW.W.lX~.W.W.W.W.Y.W.uXJ.",
"* * * * : 8 w > w > w.e.s M I 6.I 0.N.x.(.!.I.P.P.{.R.P.R.R.R.Q.].].].].].].T.K.Y.Y.S.F.K.K.K.Y.W.!.BX[.vX!.vX!.vX~.W.!.!.lXJ.J.",
"* * * * * 7 p Z M s ^ e.n m K 7.7.6.I J 8.{.W.R.{.P.].P.Q.].].P.Q.!.{.[.].I.D.(.F.F.F.S.K.K.Y.~.Y.Y.W.~.!.vXBX[.!.BXBX!.zXW.J.W.",
"= o * * o > 7 y H G ~ w.n z z D J F M z F q.{.R.I.I.{.].{.Q.{.].].{.T.F.Y.S.e.8.F.D.F.F.F.^.E.!.!.!.W.W.!.!.~.~.!.!.!.zXW.W.W.W.",
"  o   * o : 7 ; a h a j k z z z z v x m x J q.}.{.[.!.!.{.R.{.{.{.R.Y.F.F.Y.s.4.(.S.F.F.F.~.E.~.!.!.!.!.!.!.!.!.vX!.W.R.W.W.T.T.",
"  o X o o o ; 7 7 * - t z c z M z x z b m F 7.0.q.x.n.(.{.'.'.'.{.^.^.F.Y.U.F l q.(.^.^.F.~.~.~.E.!.E.!.E.!.!.!.!.BXBX~.~.~.~.T.",
"X X   o o o - 6 6 o - e x z w g M F L P P I K I K I 8.8.n.!.{.'.{.T.^.^.~.N.k K J l q.~.^.~.^.^.^.~.T.~.E.E.E.!.~.!.!.E.~.~.~.~.",
"X X X X     o 3 ;     8 v z > - 9 F 7.P P 6.P 6.6.6.K B 6.}.'.'.'.'.~.H.S.a.z F U F 9.U.~.~.~.~.~.T.W.E.E.E.E.!.!.E.~.E.E.^.^.R.",
"X X X X X X   2 < o X 6 c M q - 6 t K P G N B M M z m f U `.'.'.'.}.S.t.V.w.k F K F 4.(.~.~.~.~.!.E.!.!.R.!.!.!.!.!.!.E.E.R.E.~.",
"X X = , X X X X < . o = ; y > * 6 w m P N s z v z b z m z 0.}.{.}.G.1Xi.7Xw.S B 8.B k q.R.T.[.[.!.R.!.!.[.!.].!.[.!.!.{.!.BXE.E.",
"X X = 5 , . X X   X X   X .   = 6 0 z G D c v v z z b v n U |.SXsX2X5X5XZ.w.x m K J z K U.3XG.uXR.{.{.[.{.!.!.[.[.[.[.!.{.SX[.!.",
"X X X 4 2 X . . X X X X X X   = 3 6 n N G v v c c v z z z x 9.P.5XqX5Xa.F B m x B K x U s.rX5X5X0XtXaXzXBX[.[.[.].[.[.[.[.[.[.[.",
"X X X 2 2 < < , X X . X X X . , 3 4 e M L c c v N c v v z v J a.rX5XG.m B F F B x m m m 6.tXtX5XeX0X5X0X9XiXdXvX[.BXzXzXdXsXsXsX",
"X X . 1 2 2 3 2 X X X X X . . , 3 2 e b G b c c L b c c v c x h.tXG.G.M D F m D z m x x F 0.N.hXtXtXtXtXtXeXhXhXtXhXhXeXtXeXeX6X",
"O X X < 4 2 2 2 X X O X X X . , 2 1 8 v A S t t A L c v c c c G ).).).F N J v M z x m m z B x.`.)._._._._.)._._._._._._.).M.`.M.",
"X X X < 4 < 4 1 X X X O X X . , 3 2 0 b V A t t A P A c c c v b q.)._.K t J N v m x z x x m 7.q.b.n.n.).).).).).).).).).).).).M.",
"X X X - h p h p X . X . X X . , 2 2 6 b g b h g Z L L c g c c c K ).h.z g B P v z z z z z N I 9.n.9.x.x.x.c.c.c.c.c.M.c.m.M.M.M.",
"X X X X h H o...a . X X X X . , 4 2 3 b t t g t b L L S g g c c m K L z c c P N c B M z z B B B B D D F 6.n.n.n.c.x.c.m.M.M.M.M.",
"X X X = 3 7 u R h = . X X . . , 3 2 2 s s p p V C A L C t t t t y N L A v v A P z L P M M M Z Z N M N H N h.n.M.b.s.s.s.l.s.c.l.",
"X X . X 2 1 1 2 3 < . X . X X X O = . > A H G d.f.f.f.f.X.X.L X.G G f.g.z.z.h.b.v.b.b.v.c.b.v.v.n.v.v.v.v.c.c.b.c.b.c.x.c.l.s.s.",
"X X . , 3 2 2 2 2 < . . = < X X X X < < ..v.z.z.x.z.z.z.b.b.b.b.b.b.z.z.l.l.l.l.j.l.g.j.l.l.l.l.l.l.l.l.l.j.k.j.k.j.k.j.j.j.j.j.",
"X X . , 2 2 2 2 3 2 X X = 2 X . < 3 2 2 s g.g.g.g.f.g.g.g.g.z.g.g.g.g.g.j.g.f.f.f.d.d.d.k.d.+.+.#.#.O.#.k.k.k.k.#.#.k.#.#.k.k.#.",
"X X . , 2 2 2 2 2 2 X . = 2 X . X 2 2 4 0 G @.@.@.$.@.@.O.X.O.+.@.+.+.+.+.+.+.+.d.d.d.d.+.+.+.O.#.#.O.$. .O. .+.#. .O.O. .#.#. .",
"X X . , 2 1 < < < < X . = 2 < . X 1 2 2 4 p } } } } } } | } ] | | | } ..| | |  .|  .| |  . ... . . .$.$. . . . . . . . ..... .O.",
"X X X , 3 2 2 2 2 < = . X 2 2 X . , 3 2 4 3 C [ { { [ [ ] ] ( ] [ [ ] [ ] } [ } [ [ | [ ] ] | | [ [ [ ] ] [ | | |  .|  . .} ] ' ",
". X X , 2 2 2 3 2 5 , . , 2 2 X X = 2 < 2 1 i ' C C _ ' _ _ E V _ ' ' _ ' { ' ' { { { { ' ' ' { ] { { ' ] [ { ] ] C ( V p p a p ",
"X X . , 3 2 2 2 2 3 1 . = 5 2 X X X < < < 2 2 d ( V d C _ C V p d ( C _ C _ _ C _ _ _ _ C _ _ ' _ _ _ ' _ C V p p p p d V V ( _ ",
"X . . < 4 2 2 2 2 2 2 X = 2 2 = X X < 2 3 2 2 9 _ ) ) ) _ ) ) _ ) ) _ ) ( ) ) ) ) _ ( V ) _ _ _ _ ( ( _ ( V / _ ( ( _ _ _ _ _ C ",
"X X . 1 2 2 2 2 2 2 2 X X 2 2 < X X < 2 2 2 < 2 ! V / _ C _ / ) _ ) ) d p / / C / ) ) ` ) ) / / _ ` / ) ) ) ) ) ) ( ) ) _ ( ( ( ",
"X X O < 5 7 6 6 6 5 6 , X 2 2 < X X , 4 2 2 9 s B U B S w e C E E E d Q R E / W / / ` / / / / / ) ( / ` ) ` / W ( / / ) ` / / / ",
"X . . , 1 - 7 a h ( ~ 1 O < X X X X O 3 9 s S b s s 0 4 4 2 ; u u u i ! E E W W Q W E Q E / ` / W ` W W W Q / / / / / W ` W ` E ",
". X . X O . . . . o - 1 X . X X X . X = - , O O , 4 4 2 4 4 3 0 p S s d p p i Y Y Y Y Y Y i R Q W W W E W Q Q Q Q W W W Q Q Q Q ",
"X X . . . O X X . . O 1 = X X X X X X . X . X . , 5 5 0 e e s b s s s s n S S S b S V V p p i T Y u Y Y Y i T R ! E W Q Q Q E Q ",
"X X X X X X . X X   X < < . X X . X X X X X X X O , - ; ; 3 4 2 2 1 1 1 4 2 3 0 0 8 e e y s s n S S V d d p p T Y R ! ! ! R T T ",
"X . X . X X X X X X . < 2 . X . X X X X X X X . X X X X . X X X , = = < 1 1 < < 2 1 1 1 4 2 3 3 3 6 9 8 e e t s V s s V d p p R ",
"X . X X X . X . X X . X 2 = . X . X . X X X X X X X X X X . . X . X X . . X X   X , , , < < 1 1 4 2 2 2 4 1 1 2 2 3 3 0 9 9 e e ",
"X X X X X X X X X X   = 2 < . . X X X X X . X X . X X X .   X . X X X X X X X X X X . X . . X X X X = , = < < < 2 2 4 4 2 1 1 4 "
};
