/* XPM */
static char *_5138_1752dfe36e531600e5d755c373cc66194639eec3f88c2360950baf04d9f16445_0[] = {
/* columns rows colors chars-per-pixel */
"64 64 239 2 ",
"   c #6E342C",
".  c #4E3F2E",
"X  c #355438",
"o  c #31633D",
"O  c #3B6A3F",
"+  c #5A4B36",
"@  c #425638",
"#  c #534F35",
"$  c #694334",
"%  c #67553A",
"&  c #764036",
"*  c #3D6B42",
"=  c #3F7443",
"-  c #325F72",
";  c #2E5A6F",
":  c #38677C",
">  c #685A47",
",  c #6D4F4C",
"<  c #4A7745",
"1  c #4F6F48",
"2  c #746859",
"3  c #6D6258",
"4  c #517171",
"5  c #777565",
"6  c #535B58",
"7  c #86342F",
"8  c #8A3734",
"9  c #953432",
"0  c #9C3433",
"q  c #99393A",
"w  c #832F2D",
"e  c #A43435",
"r  c #AA3436",
"t  c #863E44",
"y  c #9A524C",
"u  c #974B46",
"i  c #BC514F",
"p  c #A55451",
"a  c #BE5351",
"s  c #B65250",
"d  c #B24A49",
"f  c #BC645F",
"g  c #A4655A",
"h  c #91776E",
"j  c #B96A66",
"k  c #AB756D",
"l  c #B97775",
"z  c #C8635E",
"x  c #C4635E",
"c  c #C36B66",
"v  c #D2736D",
"b  c #C15654",
"n  c #46854B",
"m  c #548E4D",
"M  c #5A9C52",
"N  c #579850",
"B  c #559352",
"V  c #638B51",
"C  c #6B9852",
"Z  c #74914D",
"A  c #5CA354",
"S  c #5AA655",
"D  c #60AB57",
"F  c #67A255",
"G  c #77B05D",
"H  c #73926B",
"J  c #76AA6A",
"K  c #78AD67",
"L  c #579464",
"P  c #909550",
"I  c #B99258",
"U  c #B18947",
"Y  c #96A44D",
"T  c #96A65D",
"R  c #8FAA5E",
"E  c #A7A958",
"W  c #AEB254",
"Q  c #898175",
"!  c #948C7A",
"~  c #B3906F",
"^  c #88A665",
"/  c #85BC6A",
"(  c #83B56B",
")  c #88A772",
"_  c #95A878",
"`  c #8BB579",
"'  c #99AE65",
"]  c #A8AB6A",
"[  c #B7B768",
"{  c #B2AB6E",
"}  c #C2944E",
"|  c #C89A54",
" . c #D29E51",
".. c #DAA44E",
"X. c #D8A657",
"o. c #D5B156",
"O. c #E2AC59",
"+. c #EDB45B",
"@. c #E1B557",
"#. c #E8B64B",
"$. c #C49E64",
"%. c #C9A36D",
"&. c #D3B567",
"*. c #CCAB79",
"=. c #D8B274",
"-. c #D5B467",
";. c #EDB969",
":. c #EDBD73",
">. c #E0AF61",
",. c #C4C269",
"<. c #D9CD71",
"1. c #EEC17D",
"2. c #EFD96A",
"3. c #F6E474",
"4. c #F5E16F",
"5. c #D2C25E",
"6. c #336B83",
"7. c #366E86",
"8. c #36738D",
"9. c #3C748A",
"0. c #367590",
"q. c #477587",
"w. c #4E7C8D",
"e. c #627A81",
"r. c #8F7D83",
"t. c #D27D9F",
"y. c #D97FA2",
"u. c #518C99",
"i. c #6F8F92",
"p. c #61A69D",
"a. c #518BA6",
"s. c #759BAE",
"d. c #77A3BC",
"f. c #5EA6B6",
"g. c #6DB2D3",
"h. c #64BAE2",
"j. c #62C0EF",
"k. c #9C9786",
"l. c #858C87",
"z. c #AD948C",
"x. c #94B984",
"c. c #97B091",
"v. c #BBA98E",
"b. c #BEBC84",
"n. c #A9A39A",
"m. c #B1B695",
"M. c #859CA6",
"N. c #B58BB3",
"B. c #B089AE",
"V. c #92A3A9",
"C. c #93ADB3",
"Z. c #A8ABA3",
"A. c #B7AAA7",
"S. c #BBA5B8",
"D. c #AFB5B0",
"F. c #C59193",
"G. c #C5A887",
"H. c #C7BA9B",
"J. c #D5BB99",
"K. c #CCB188",
"L. c #DB81A4",
"P. c #CB90A5",
"I. c #C6B8A4",
"U. c #CAA6B6",
"Y. c #C9B8B6",
"T. c #CDB1A9",
"R. c #E2BE8E",
"E. c #BBC5BB",
"W. c #AFC3A8",
"Q. c #A9C59B",
"!. c #D8C49A",
"~. c #CECA91",
"^. c #EAC48A",
"/. c #EFC993",
"(. c #E4C396",
"). c #F4E489",
"_. c #F6E89A",
"`. c #CBC7AE",
"'. c #D9C5A8",
"]. c #C8C5B9",
"[. c #DBCDBA",
"{. c #D6CAB9",
"}. c #D2D2BD",
"|. c #EBCEAD",
" X c #E4C8A9",
".X c #E8CCB6",
"XX c #EDD2B3",
"oX c #EAD4BC",
"OX c #F1D2B1",
"+X c #F1D7BA",
"@X c #F2D9BD",
"#X c #F2E6A6",
"$X c #F5EBB5",
"%X c #9BB9C5",
"&X c #C9BBC5",
"*X c #CFB4C3",
"=X c #B3C4CC",
"-X c #A6C5D3",
";X c #9EC5D7",
":X c #CBCBCD",
">X c #CAC7C8",
",X c #D6C8C9",
"<X c #D9D4C9",
"1X c #D6CDD1",
"2X c #C9D4DA",
"3X c #D4D4D4",
"4X c #DDDBD5",
"5X c #D2D6D9",
"6X c #D5DADC",
"7X c #DBDCDB",
"8X c #D8D6D4",
"9X c #C9D0CF",
"0X c #F2DBC4",
"qX c #E2DDDC",
"wX c #E3DBD3",
"eX c #EFDCC5",
"rX c #EFE3CD",
"tX c #F3E7CA",
"yX c #E2E2DF",
"uX c #EBE7D9",
"iX c #F4E9D6",
"pX c #F4E9D7",
"aX c #F6F2D7",
"sX c #F6F0CE",
"dX c #DADEE0",
"fX c #D7DFE3",
"gX c #DDE1E2",
"hX c #E4E4E3",
"jX c #EDEDED",
"kX c #E9E8E6",
"lX c #F3EEE4",
"zX c #F3F2EC",
"xX c #F4F2E5",
"cX c #ECEEF0",
"vX c #F3F3F3",
"bX c #FAFAFA",
"nX c #F9F9F7",
"mX c #EEF0F0",
"MX c #E2DFDE",
/* pixels */
"vXvXvXvXvXvXvXmXnXmXvXmXvXvXvXvXvXvXvXvXvXvXvXvXvXvXvXvXvXvXvXjXvXvXvXjXnXU.y.y.y.U.D.( m.7XvXnXmXnXmXnXmXvXvXnXvXvXvXcXnXcXnXjX",
"vXvXvXvXvXvXvXvXvXvXvXvXvXvXvXvXvXcXvXvXvXvXvXvXvXvXvXvXvXvXvXvXvXvXvXlXzXkX1XwX1X7X}./ / / x.7XvXmXvXmXvXvXvXvXvXvXvXvXvXvXvXvX",
"vXvXvXvXvXvXvXvXvXvXvXvXvXvXvXvXvXvXvXcXvXvXvXvXvXvXvXvXvXvXvXvXvXvXiX_.#XpXvXvXvXvX6X/ / / ` gXvXvXvXvXvXvXvXvXvXvXvXnXvXvXvXvX",
"vXvXvXjXvXvXvXcXvXmXvXvXvXvXvXvXvXvXvXnXmXnXjXvXjXvXvXvXvXvXvXvXvXvXtX4.4.iXvXvXvXvXmXK / Q.hXvXmXnXmXvXmXvXmXvXvXmXvXcXnXcXnXjX",
"vXvXvXnXjXbXcXnXjXnXmXvXvXvXvXvXnXjXnXjXnXjXbXjXvXvXvXvXvXvXvXvXjXnXuX)._.xXzXnXvXvXvXm.3XmXnXmXbX:X>X3XvXmXvXvXvXvXcXnXjXnXcXbX",
"vXvXvXjXbXjXbXjXbXjXnXjXvXmXvXvXcXbXjXbXjXbXjXbXjXnXcXvXvXvXvXjXbXmXbXjXnXjXvXjXvXzXvXvXjXnXjXnX&XN.N.N.&XvXvXvXvXvXnXjXbXjXvXjX",
"vXvXjXbXjXnXjXbXjXbXjXnXvXvXvXvXvXcXbXkXbXkXbXjXbXvXvXvXvXvXmXbXjXbXjXbXkXjXv B.jXnXvXmXnXjXbXmX>XS.1XN.*XcXvXvXvXvXjXbXjXbXjXbX",
"vXvXvXjXbXjXbXkXbXjXnXvXvXjXvXvXcXnXjXbXjXbXkXbXjXvXvXvXvXjXnXjXbXjXbXjXbX<Xy y A.mXvXvXmXnXtXnXkXbXS.N.1XvXvXvXvXcXvXjXbXjXbXjX",
"vXvXvXvXjXbXjXbXjXnXjXvXvXvXvXvXnXjXbXjXbXjXnXjXvXvXvXvXvXvXcXnXjXbXjXbXjXnXA.j l D.vXvXnX#X3.tXnX&XN.&XvXcXvXvXvXvXjXbXjXbXjXbX",
"vXvXvXjXbXjXbXjXbXjXbXcXvXvXvXvXjXnXjXbXjXbXjXbXmXvXvXvXvXvXvXjXbXjXvXjXbXjXnXT.j k Y.vXmX$X).sX5XN.N.S.S.kXvXvXvXvXnXjXbXjXnXjX",
"vXvXvXbXjXnXjXbXjXbXjXnXvXnXvXcXnXjXnXjXbXkXbXjXnXmXvXvXvXvXvXnXjXbXjXbXjXbXmXvXT.u p hXnXjXbXjXhXS.S.S.&XcXvXvXvXvXjXbXjXbXjXbX",
"vXvXvXjXbXjXvXjXbXjXnXjXvXvXvXvXvXnXjXnXjXnXjXbXmXvXvXvXvXvXvXjXbXjXbXjXnXjXnXvXvX>XF.,XmXnXjXnXkXbXcXnXcXvXvXvXvXmXnXjXbXjXbXjX",
"vXvXvXvXmXnXvXnXjXnXcXvXvXvXvXvXvXvXvXjXvXvXvXmXnXmXvXvXvXvXvXvXmXvXzXnXcXvXmXvXvXvXvXjXdX7XnXyXr.p kXcXbXvXvXvXvXvXvXvXjXnXcXnX",
"vXvXvXvXvXjXvXmXvXvXvXvXvXjXvXvXvXvXvXvXvXvXvXvXvXvXvXvXvXjXvXvXvXvXvXvXvXvXtXpXvXvXhXkXvX=XgX'.~ h jX2X;X2XvXvXvXvXvXvXvXcXvXcX",
"vXvXvXvXvXvXvXvXvXvXvXvXvXvXvXvXvXvXvXvXvXvXvXvXvXvXvXvXvXvXvXnXvXvXvXvXvXvX#XiXvX8XvXbXbXmXV.&.{ 6XcXg.h.h.hXvXvXvXvXvXvXvXvXvX",
"vXvXvXvXvXvXvXvXvXvXjXvXvXvXvXvXvXvXvXjXvXvXvXmXvXvXvXvXvXvXvXvXvXvXmXvXhXgX3X5X5XgXbXbXbXzX<.&.<XcXvXg.h.h.qXvXvXvXvXvXjXnXcXnX",
"vXvXvXvXvXvXvXvXnXvXvXvXvXvXvXvXvXvXvXvXvXvXvXvXzXvXnXvXvXvXvXvXnXcXvX5XbXbXbXbXdXdXbXbXbX].{ ( c.9XzX2X;X2XvXvXvXvXvXmXvXvXvXvX",
"vXvXvXvXvXvXvXvXcXvXjXvXvXvXvXvXvXcXvXcXvX7XwX,XwXkX[.kX4XvXvXvXcXnXkXC.bXbXbXbXcX9XbXbXbXY.^ K ` / 3XvXvXvXvXvXvXvXvXvXmXnXcXvX",
"vXvXvXjXbXjXvXjXbXcXbXjXvXvXvXvXvXnXkXwX'.(.(.^.^.K.$.=.H.zXvXjXnXcXnX=XjXbXbXbXbX3XkXbXbXhX/ J i./ c.bXmXvXmXnXvXmXnXcXbXcXnXjX",
"vXvXjXbXjXbXjXbXkXbXjXnXvXvXvXjXvXqXJ.;.;.;.:.^./.^.;.+.=.[.jXbXjXnXjXcX=XbXbXvXbXgX5XmXfXV./ K / K }.zXnXvXvXmXmXnXcXbXjXbXjXbX",
"vXvXvXjXbXjXbXjXbXjXnXjXvXmXvX[.*.>.+.+.+.+.+.X.:././.:.:.:.J.hXbXjXnXjXC.bXU.f Y.jX:X=Xd.x.K / / 4XjXnXmXvXvXvXvXmXvXjXbXjXbXkX",
"vXvXvXbXjXbXjXbXjXbXjXnXvXvXvX{.O.+.+.+.+.+.+.| +.;./././././.'.jXbXjXbX%XgXj c j s.s.d.mXx.x.c.K 7XbXjXnXmXvXvXvXvXmXbXkXbXcXbX",
"vXvXvXjXbXjXvXjXbXjXnXvXvXmX{.O.+.O.X.| +.+.+.O.o.+.:././././.(.kXcXnXjXfXr.c j x v.dXhXkX/ / K ` nXjXnXmXnXmXvXvXmXnXjXbXjXbXkX",
"vXvXvXbXjXvXjXbXjXnXjXvXvXjX=.+.O.K.X.X.X.+.+.O.X.O.+.;.1.1.1.:.<XvXcXnXkXk a T.x t.mXmXnXE.Q.W.kXzXnXmXvXmXvXvXvXvXmXnXjXbXcXbX",
"vXvXvXjXnXjXnXjXbXjXnXcXvXjX*.O.%.XX$...} ....} O.+.+.+.+.+.+.+.[.jXvXmXjXc j F.z c qXvXzXnXmXnXjXnXmXnXmXvXvXvXvXvXvXmXnXmXvXmX",
"vXvXvXvXcXvXvXvXcXnXvXvXvXvXK. .J.+XJ.$.| } ..} ..+.+.+.+.+.+.+.'.vXvXvXwXx z z z z P.vXvXmXvXjXvXjXnXmXvXkXcXvXvXzXxXnXmXnXvXnX",
"vXvXvXvXvXvXvXvXvXvXvXvXvXmX=.%.XXXXR. X'.J.G.$.}  .+.+.+.+.+.X.[.jXvXvXY.z j ,XF.c j cXvXvXaX).sXnXmX[.-.@.!.vXlX).#XzXvXvXvXmX",
"vXvXvXvXvXvXvXvXvXvXvXvXvXvX*.K.@X@XXXiXpXpX0X0X X$. .O.+.+.;.}  XnXvXvXY.z F.zXhXj j jXvXvXzX#XaXvXvXhXK...4XvXlX_.$XvXvXvXvXvX",
"vXvXvXvXvXvXvXvXvXvXvXvXvXvXJ.G.@X.XI.qXlXpXpXiX0XT.J.$. .X.} } =.<XjXvXqXF.,XzXvXkXkXvXvX:XjXvXmXvXnX[.o. XvXvXvXvXvXvXvXvXvXvX",
"vXvXvXvXvXmXvXcXnXcXvXvXvXvXhXG.+X[.0XqXxXxXpXpX,XT.T..XT.G.v.I O.J.vXzXsXlXvXvXvXmXvXvXhX9X:XvXMX!.,Xo.J.vXvXvXvXvXvXcXvXmXvXvX",
"vXvXvXvXjXnXjXnXjXnXjXvXvXvXvX,X.X.X0XpXpXlXpXiXtX0X.X.X@XOXOXG.].jXvXnX3.$XzXnXvXnXvXdX:X6X3X5XbX=.#.&.lXjXvXvXvXvXjXnXjXnXjXnX",
"vXcXvXjXbXjXbXjXbXjXbXjXvXcXvXwX.X0X0XiXiXpXiXrX0X0X0X0X+XJ.G.! 4 1 D.gXaXkXnX2X2XhX:X3X5X5XdX9X3XvX~...{.vXvXvXvXmXnXjXbXjXnXjX",
"vXvXjXbXjXbXjXbXjXbXjXnXvXvXvXmX{.+X0X`.8X,X{.{.{.0X@X+X X$.U O P O n G K m.3X%Xg.g.3X5XdX5X5X5X5XjXbXwXlXjXvXcXvXnXjXbXjXbXjXbX",
"vXvXvXjXbXjXbXjXbXjXnXjXvXvXvXvX4X.X@XoXyXbXbXzX.X@X+X+X*.U X * E O P <.R G G %XM.h.:XdX5XdX5X:XhXbXjXbXjXnXvXvXvXjXbXjXbXjXbXkX",
"vXvXvXnXjXvXjXbXkXbXjXnXvXvXvXmXvXZ.H.OX.X<XwX{.oX+X|._ m B S N < o Y 4.3.' J p.h.%X6X6XdX2XS.U.*X7XbXjXnXcXvXvXvXvXjXbXkXbXjXbX",
"vXvXvXmXbXjXvXjXbXcXnXjXvXvXjX<XY.1 6 ~ J.|.XX.XJ.G.g 1 O o * N A < C &.3.,.f.p.h.=X6X5X:XY.t.y.y.P.jXnXjXvXvXvXvXvXnXjXbXjXnXjX",
"vXvXvXvXjXnXjXbXjXnXjXnXvXvX{.OX'.h e r w z.J.G.  w q X o @ < m A A A Y 3.2.B p.%X:X:X5XjXP.L.1XhX*XnXjXnXvXvXvXvXvXcXbXjXbXjXbX",
"vXvXvXvXbXmXnXjXnXcXnXjXvX{.|. Xv.e e r 9   &   8 r > * $ e 9 n N A M Y 4.E S J jXvXvXvX7Xt.U.bXjXbXjXnXmXvXvXvXvXvXvXjXbXjXvXjX",
"vXvXvXvXmXvXcXnXjXvXcXvXqX|. XV , 9 e r r e 0 e r g '.J.q r r 0 < S M Y o.F S Q.mXvXvXmXhXL.P.,X,XjXvXjXnXvXvXjXvXvXvXnXjXnXcXbX",
"vXvXvXvXvXvXvXvXvXvXnXjX[.OXk.o $ s b i i i s a a z.'.XX*.u 9     < D Y C S F }.vXvXvXvXvXY.L.L.P.kXvXvXvXvXvXvXvXvXvXvXvXvXvXcX",
"vXvXvXvXvXvXvXvXvXvXvXhX'.OXQ o $ c v v v v v v v ~ _ H. X XG.h G.V M Z D D ` ~.`.vXvXvXvXvXwX*XqXvXvXvXvXvXvXvXvXvXvXvXvXvXvXvX",
"vXvXvXvXvXvXvXvXcXnXvXMX'.OXH o   d d i a a a b b & o + k |.OX|. X) A V D S ' <.b.vXvXmXvXvXvXmXbXjXvXvXvXvXvXvXvXvXvXvXjXvXvXvX",
"vXvXvXvXvXvXvXvXnXjXnXvXqXwXZ.o & r r r r r r r 9 $ o @ & ) XXOX|.m.A T P F T ,.] mXvXvXvXvXvXvXjXbXmXnXcXvXvXvXvXvXvXvXbXjXvXvX",
"vXvXjXvXjXvXvXvXjXnXjXvXvXnXjX6 8 r r r r r r 0 e 9 X o # S H m. X) C ] T <.V V < kXvXvXvXjXnXcXnXjXbXjXvXvXvXvXvXvXvXvXjXbXjXnX",
"vXvXvXjXbXvXvXjXnXcXnXmXnXjXvXA.e r r r r r r r r r 7 o o n S S M M F E C F m V ^ I.vXvXmXnXjXnXjXbXjXvXvXvXvXvXvXvXnXcXbXjXvXjX",
"vXvXvXnXjXvXcXbXcXnXcXvXvXnXqXj r r e e e 0 9 r r r e $ X X O m S M M R C S V E ,.[ hXvXvXjXbXcXbXjXbXjXvXvXvXvXvXvXjXvXjXbXcXbX",
"vXvXvXjXbXjXbXjXbXjXnXmXvX,Xy 9 9 9 r 9 9 e r r r r r 7 X X O o m M D C Z D ^ E W ] cXvXmXbXjXbXkXbXjXbXjXvXvXvXvXvXnXjXbXjXbXjX",
"vXvXvXvXjXbXjXbXkXbXjXdX5Xh 9 e r e 7 e r r r r r r r w o 1 V * O M M F G ^ ~.b.m.jXvXvXbXkXbXjXbXkXbXjXbXjXvXvXvXvXjXbXjXbXjXbX",
"vXvXvXjXbXjXnXjXbXjXC.- - 9.8.6., r r w 9 r r r r r r $ o P E Y ' ] W [ ,.,.&.H.vXvXvXvXjXbXjXbXjXbXjXbXjXvXvXvXvXjXnXjXbXjXnXkX",
"vXvXjXbXjXnXjXbXjXbXe.l.k.0.8.q.8.4 q r 9 8 9 e 0 r r $ o H { E ,.,.,.,.[ b.`.jXjXvXvXvXvXjXbXjXbXjXbXjXvXvXvXvXvXnXjXbXjXbXcXbX",
"vXvXvXvXnXcXnXcXvXcXk.OX Xq.0.0.0.0.- t r e 0 9 e r r r.* 4 kX8X}.`.}.}.hXkXnXcXvXvXvXvXvXnXcXnXcXvXjXvXcXnXvXvXvXvXvXcXnXvXvXcX",
"vXvXvXvXvXvXjXnXcXqX XOXOXA.q.0.0.0.6.- , 0 r r r r r F.E.E.jXvXvXnXvXvXmXvXjXvXvXvXvXvXvXcXvXvXvXvXvXvXvXvXvXjXvXvXvXvXcXvXcXnX",
"vXvXvXvXvXvXvXvXvX,XOXOXOX|.e.9.0.0.; ; 7.; , t q q q t.cXcXvXvXvXvXvXvXvXvXvXvXvXvXvXvXvXvXvXvXvXvXvXvXvXvXvXvXvXvXvXvXvXvXvXvX",
"vXvXvXvXvXjXvXvXjX XOXOXOX|.4 6.8.8.; ; 8.8.7.6.6.6.7.fXvXcXvXvXnXzXvXzXvXvXvXvXvXvXvXvXvXvXjXvXvXnXvXvXvXvXvXvXvXvXvXvXvXvXvXvX",
"vXvXcXvXvXvXvXvXqXgXhX<X Xv.- ; ; ; ; 6.7.0.0.8.q.w.s.cXvXvXmXvXvXvXvXvXvXvXvXvXvXvXvXvXvXvXvXvXvXvXvXcXvXvXvXvXvXvXvXvXvXvXvXvX",
"vXvXvXvXvXhXqX1X8XbXbXbXA.l.M.M.C.C.S.7.0.0.0.8.w.w.d.cXmXvXvXvXvXmXnXmXvXvXvXvXvXcXvXvXvXvXvXvXcXnXcXnXjXnXvXvXvXvXvXvXvXvXvXjX",
"vXvXvXnXfXh 5 5 2 n.bXbX:X6XvXvXvXmXjXq.0.0.0.8.w.a.f.7XvXvXvXvXmXnXcXbXjXvXvXvXvXvXvXvXvXcXbXjXnXjXbXjXvXvXvXvXjXvXcXnXjXvXcXbX",
"vXvXvXjXD.+ + % $ % D.jXkXvXnXvXmXnXjXi.8.0.0.0.0.a.w.w.h > ].jXbXjXbXcXbXjXvXvXvXvXvXvXjXbXjXvXkXbXjXbXjXvXvXvXvXvXbXjXbXjXbXjX",
"vXvXmXnXn.% % % # % % D.mXvXmXmXnXcXbX9X6.0.0.0.0.0.9.l.cXV.3 nXkXbXjXbXkXbXjXnXjXvXvXjXnXjXbXjXbXjXbXjXbXjXvXvXvXvXvXbXjXbXjXbX",
"vXvXvXjXnXn.> % + # + h nXvXvXvXmXnXjXbXV.0.0.0.0.q.k.OXwX>X% 9XbXjXbXkXbXkXbXcXnXvXvXvXjXbXjXbXjXbXkXbXjXnXvXvXvXjXnXkXbXkXbXkX",
"vXvXmXnXjXvX3Xn.2 % 3 1XvXvXvXvXvXzXnXjXkX7.8.9.i.I.XX XA.Q % Z.jXbXjXbXmXbXmXvXvXvXvXvXvXjXbXjXvXjXbXjXvXvXvXvXvXnXjXbXjXbXjXbX",
"vXcXvXmXbXjXbXjXnXY.yXmXvXmXvXvXmXbXcXbXjX:XV.H.|. X{.Y.# > > k.bXjXvXjXbXjXvXvXnXvXvXvXcXbXjXbXjXbXjXbXvXvXvXvXvXcXbXjXbXjXbXjX",
"vXvXvXnXjXbXjXbXjXbXjXnXvXvXvXvXvXcXbXjXbXkXbX1X8XhXvXvXQ h 2 n.jXbXvXbXjXbXvXvXcXvXvXvXnXjXbXjXbXjXbXjXbXcXvXvXcXnXcXbXjXbXjXbX",
"vXvXvXjXnXmXnXjXbXjXnXjXvXvXvXvXvXvXjXbXjXbXjXbXjXnXjXvXY.3 2 dXbXjXvXjXbXjXvXvXvXvXvXvXcXnXcXvXjXbXjXvXjXnXvXvXvXjXvXjXbXjXvXjX"
};
