/* XPM */
static char *_3161_e08c5c63d86fb06e2de254725f19d55f3fcca873b9aece8fa27f9ddf95fbda17_0[] = {
/* columns rows colors chars-per-pixel */
"64 64 227 2 ",
"   c #882E23",
".  c #8C3327",
"X  c #8E3D2E",
"o  c #933426",
"O  c #953C2B",
"+  c #9B3C2A",
"@  c #943728",
"#  c #8E3F34",
"$  c #A23D2A",
"%  c #9D422E",
"&  c #96412F",
"*  c #9C4532",
"=  c #9E4934",
"-  c #9C4C3D",
";  c #954639",
":  c #944D3E",
">  c #A2442E",
",  c #A9462D",
"<  c #B14A2F",
"1  c #A14732",
"2  c #A44B33",
"3  c #AB4D32",
"4  c #A34F39",
"5  c #A84F3B",
"6  c #B24E31",
"7  c #AD5235",
"8  c #A4523D",
"9  c #AC543A",
"0  c #AD593E",
"q  c #A75036",
"w  c #B55334",
"e  c #B85636",
"r  c #B55837",
"t  c #B95837",
"y  c #B4553A",
"u  c #B55A3B",
"i  c #BB5C3B",
"p  c #BE613D",
"a  c #C1633E",
"s  c #C4683F",
"d  c #984D41",
"f  c #9A5144",
"g  c #9B574A",
"h  c #A45443",
"j  c #A65946",
"k  c #AB5A43",
"l  c #A45B4C",
"z  c #AB5E4C",
"x  c #A95744",
"c  c #B35D43",
"v  c #B95E42",
"b  c #A45E51",
"n  c #AA5E50",
"m  c #A24F40",
"M  c #AC614C",
"N  c #A7604E",
"B  c #B46244",
"V  c #BC6343",
"C  c #BF6946",
"Z  c #B3634B",
"A  c #BB654A",
"S  c #BD6A4C",
"D  c #B7694D",
"F  c #A66152",
"G  c #AC6454",
"H  c #AD6955",
"J  c #AD6C5C",
"K  c #A8665A",
"L  c #B26652",
"P  c #B46A54",
"I  c #BB6C53",
"U  c #B36D5B",
"Y  c #B96E59",
"T  c #BC7155",
"R  c #B5715C",
"E  c #BB735C",
"W  c #BF795D",
"Q  c #B67056",
"!  c #9F6B65",
"~  c #A96E62",
"^  c #A26D64",
"/  c #B16E61",
"(  c #AE7264",
")  c #A9756C",
"_  c #B47463",
"`  c #BC7661",
"'  c #B67967",
"]  c #BC7A64",
"[  c #B37668",
"{  c #B47B6C",
"}  c #BB7D6B",
"|  c #AD7C73",
" . c #A57D78",
".. c #B47D71",
"X. c #BA7E71",
"o. c #C26641",
"O. c #C46A44",
"+. c #C86E45",
"@. c #C26B4B",
"#. c #C0674A",
"$. c #C97147",
"%. c #C5714E",
"&. c #CB744B",
"*. c #CE794E",
"=. c #C16D52",
"-. c #C47354",
";. c #C97651",
":. c #CD7953",
">. c #C3755B",
",. c #C5795B",
"<. c #CA7C5C",
"1. c #C67955",
"2. c #D17F55",
"3. c #D17C4F",
"4. c #C47C63",
"5. c #C97E63",
"6. c #C27E69",
"7. c #BE826D",
"8. c #AE837C",
"9. c #B68174",
"0. c #BC8373",
"q. c #B3847B",
"w. c #BB8679",
"e. c #BD8A7D",
"r. c #BF8875",
"t. c #CD815E",
"y. c #D2825A",
"u. c #D38156",
"i. c #C48166",
"p. c #CB8264",
"a. c #C3836C",
"s. c #CA846B",
"d. c #CC896E",
"f. c #C6886C",
"g. c #D18B6C",
"h. c #C38673",
"j. c #CA8671",
"k. c #C48A75",
"l. c #CB8B73",
"z. c #C18779",
"x. c #C38C7C",
"c. c #CA8E7B",
"v. c #D18E71",
"b. c #D08F78",
"n. c #C6917E",
"m. c #CB927C",
"M. c #CD9074",
"N. c #D49275",
"B. c #D2947A",
"V. c #D89573",
"C. c #B68C83",
"Z. c #BC8D82",
"A. c #B68F88",
"S. c #B08780",
"D. c #BD9186",
"F. c #B6928C",
"G. c #BD948A",
"H. c #BE988E",
"J. c #BC9A92",
"K. c #BB9994",
"L. c #BFA09B",
"P. c #C18F81",
"I. c #C49384",
"U. c #CA9583",
"Y. c #CE9984",
"T. c #C3958A",
"R. c #C5998D",
"E. c #CC9B8C",
"W. c #C89787",
"Q. c #D29B85",
"!. c #D29D8B",
"~. c #D29682",
"^. c #C49D93",
"/. c #CA9E92",
"(. c #C29F98",
"). c #D09F91",
"_. c #D9A186",
"`. c #D4A18D",
"'. c #D7A188",
"]. c #C6A196",
"[. c #CBA195",
"{. c #C5A29A",
"}. c #CBA59A",
"|. c #CDA99E",
" X c #D3A494",
".X c #D9A794",
"XX c #DBAA95",
"oX c #D2A699",
"OX c #D3AA9D",
"+X c #DBAD9C",
"@X c #D4A897",
"#X c #D7A895",
"$X c #E1B39E",
"%X c #C5A6A0",
"&X c #C9A7A0",
"*X c #CCACA3",
"=X c #CCAEA8",
"-X c #C7A8A2",
";X c #D2ADA2",
":X c #D9AFA1",
">X c #CEB2AC",
",X c #D4B1A6",
"<X c #D4B4AC",
"1X c #D9B5AB",
"2X c #DAB9AD",
"3X c #D8B4A6",
"4X c #D5BBB4",
"5X c #DBBDB3",
"6X c #D4BAB5",
"7X c #E1B9AA",
"8X c #DBC2BB",
"9X c #D8C0B9",
"0X c #E1C1B6",
"qX c #E2C5BC",
"wX c #E5C9BF",
"eX c #DCC7C1",
"rX c #DDCCC8",
"tX c #E2CCC5",
"yX c #E2CFCA",
"uX c #E6CAC0",
"iX c #E5D3CC",
"pX c #EAD4CC",
"aX c #EAD0C6",
"sX c #EAD7D1",
"dX c #E8D7D2",
"fX c #F1E1DA",
"gX c #F1E6E2",
/* pixels */
";.o.O.@.O.V 4.5.+.%.+.V u A h.I ,.,.>.>.=.I.6.>.>.1.<.-.U.=.=.4.5.5.<. X<.p.4.4.4.s.2XA A A -.g.2.d.l.p.p.d.p.p.M.j.=.=.4.5.<.5.",
":.+.$.i 6 6 z Y i o.i a w y I < w t w V y U 6 6 6 6 w i ` w w w w o.V 7.t p i p w w ' e w w s +.o.-.-.i t p t y B I , w t i O.o.",
"k.l.i.R U U { 9.] / P Y Y 4.h.Y I E ] W ` q._ U n P U / Z.` U ` E i.h.E.E ,.E T M D I.R ` ` R ` W k.7.4.R P L M ' P.U U ` 4.4.] ",
"'._.l.-X| Z.w.q.Z.w.^.U.Q.Q..X+X'.3X.X`..X:X+X:X1XR.k.U.!.U.U.[.k.U _ } U ' { m.p.p.N.E 4.>.(./ { 0.h.x.7.R.M.c.~.Q.U.Q.,Xh.k.l.",
"$.&.O.b O & % & % 1 g v 6 w w w i ] O.i i p w w u A w t t e i z P 9 0 9 * % * ] V o.p p w w ' + + > 7 u 9 R i p i t w w Y 6 6 w ",
"7 u p F . . % 3 y * g D 2 5 y B B { B u r r 3 w 7 z , 3 y V u l J k k * & O & _ 9 9 7 w 7 y { & 4 * % * = J y u 0 7 2 9 ' 9 0 u ",
"9XaX8XpX8XeXrX4X4X2XpXiX<XpXiXsXtXdXeXeXiXrX9X8XyXsXuXtXrX=XuXtXsXrX4XdXtXsX9XdXiXiXyX4XpX9XeXiXiXgXeXpXiXiXfXiXfXdXrXsXrXeXrXiX",
"%.p p C p u E <.O.O.O.V v D a.@.@.@.@.B A P.%.%.=.@.V A E.u v v V V v ] u u V v A o.c.-.@.A @.V B j.a.v i V A @.p.J 0 x h m - 4 ",
"%.i i a w t D ,.&.*.u w 6 y W i i a t t t } a o.p p e 6 h.6 6 e i o.i N i w w w p o.] @.i i o.y t I a.t w w i o.-.F * 4 % % + @ ",
"^.OX[.[.G.[.<XOXOX^.E.E.G.G.].I.I.T.} ' k.{.w.x...P.P.U.,XP.I.I.E.I./.=X}.P.R.E.I.k.}.7.i.] 0.R E W.[.' { E. X^.<XL.A.F.| ..w.9.",
"v V i U r e v V O.p k.f * * * ; * | -.a s a i w 6 6.D u v o.+.E 4.A V C V @.-.l.w t p O.+.o.} o.%.s p t w a.o.o.V s i i >.y w V ",
"V o.V P t w w w p p U : y 1 % + @ ) ;.+.&.i w w 6 I w e 6 w t D Z w w p i i @.a.w t p p a i 9.i V i p w w 6.i i i i w w I w w a ",
"E a.i.W.x.R 0.x.I.n.].8.( ' { { ~ {.R.I.x...0.0.~ /...X.~ ( ..q.P.] / 6.' 4.} W.E R _ J 0._ R.' 0._ R ' X.R.X.x.w.X.{ w.D.` ' R ",
"f.V.V.,.E E m.OX~.l.M.k.l.B.'.d.B.B.B.p.p.OXp.s.s.d.6.c.G.H _ K ~ _ K &XI -.1.p.t.t. X>.,.<.5.1.,.b.} 4.` 4.` ' X.k.5.s.6.s.j.] ",
"p s &.p w w I D w w p p p B ,.i r w w w w 0.p i w w w w g % = + * O @ ..w e V p p p _ w 6 t s $.V T 5 3 , $ > + 1 x u i e t 6 6 ",
"Q D M M Q L ( R c 4 p Z B L 7.T T I M 8 E q.j j = h M L ) : : d d ; ; Z.c k 9 8 J M q.8 M M z E W { f - ; O d h n G Z c Z c c z ",
"W.[.x.}.k.c.x.Y.j.d.E.E.m.m.U.~.c.@XOXE.OX|././.D.<X|.,X,X/. X}.,X/.oX3XE. XW.=X/./.1XE.OXT.*X!.`.OXD.W.x.{.E.E.}. XE. X*X`.E.#X",
"r 6 w E w w p p o.o._ c w i a +.a d.k t e e e e c I y e p v p -.>.p i y t w t X.e t w t w w 6.+.&.+.w w 6 n.i i t t w w E $.&.$.",
"s p i 7.w w i i B V J k w w i 2.*.m.4 V @.i 6 6 w A t 7 p v p ,.T +.a w t t @.( i #.o.e < < ] s p s o.p i I.o.a o.p 7 t P o.a a ",
"{.*XH.=XR.H.Z.].6X{.4X|.|.&X{.^.}.<X&X/.Z.&X;XoX|.3XR.T.|.;X,X|.9X=X<X5XZ.w.I.oXx.h.T.*X,X;X4X,X}.{.].<X{.6X;X=X<X-X^.<X6X,X-XR.",
"h 1 1 > % + z U 2 2 3 q 9 0 ` w w t e t w k.w e i O.+.O.a.a a O.+.+.&.n.w w i a o.a W v 6 t t t p ,.E w t p v a #.Y w i t t t w ",
"4 2 1 + + + n M 2 2 9 y y 0 U i o.i i 6 6 ] w e p i V p W a s $.*.*.$.n.6 w w s :.$.W y t t p p i W >.w w w r +.o.A 6 6 t i o.y ",
"Z.w.w.Z.( J I.Z.' K { e.e.e.].I.x.T.k.h.x.^.x.z.0...Z.q.^.e.0.w.n.k.7.|.{ k.r.I.I.E.|.n.z.{ r.7.] I.W.J R e.c.9.e.T.X.z.r.a.} 0.",
":.<.1.i.S *.%.@.@.v 4.l.1.T E -.,.W.>.p.<.,.=.6.k.b l N z z l { >.C %.%.@.@.p.d.1.4.,.>.-.I Y.v C @.%.*.%.e.k h h h h n h.I @.-.",
"p o.p E v V p i i w D S p p p r w I y y w 6 w 6 E O @ * & = = : 9 w 6 p &.O.<.V p i w y w i 7.w i a p o.B 9.3 1 1 1 $ + L 6 e i ",
"F ' H q.[ } _ U _ } r.r.] a.E J ` Z.) _ U K { X.T.^ K ~ ^ K ~  .{ ' X.} h.m.W.e.k.k.k._ J U.G.7.R U ~ w...{...9.9...) e.X.Y L Z ",
"I.Y.!.W.x.W.E.1XOXOXOX X[.@XOXY. X+XE.W.P.;XU.). XQ.I.(.*Xc.E.[.E. XW.=X} j.k.m.d.k.OXx.k.M.m.l.a.U.P.U.c.E.W.U././.U.).I.l.h.} ",
"S O.&.a w 6 I E w w i u p p ,.p i w e w t r.o.i y y w y R w i t i w 6 h.w w p a o.s { < w t o.$.s >.c V t t t w Z L i i t t w 6 ",
"D s s p O.V T P t w p s p O.E O.o.t w y V { u u w 3 w w F u C V i < 6 k.w t i t v V { 3 6 w p u.%.,.M V O.i w < A M V o.p y 6 6 ",
"{.].G.J.].[.].1X}.E.{.w.9.{ D.e.Z.-X*XT.}.=XG.G.A.].-X}.,XE.x./.6X,X;X5X,X}.[.G.r.w./.r.n.x.R.r.k.E.E.n.e.;X|.;X2X5X;XoX<XoXoX;X",
"p V p L w 7 t w i t } L q 9 8 2 1 l L r w t t t w 4.y y r i O.I Z 6 r i t i @.k.w t p V s p } p O.p p t w a.V i i i w w I 6 y i ",
"o.O.s Y i w w y o.o.] P B B 2 % + f z p o.i w 6 6 U 3 6 3 w y Z B w r p p i @.a.w t p i r r 9.u V i i r w 6.i i r r 3 6 U e w p ",
"] k.k.I.E.9./.}.I.E.|.].R.w.R.T.T.R.^.W.P.).I.I.Y.;X^.I.T.Z.T.].}.E.Z.T.c.k.T.}.W.n.e.e.T.Z.|.Z.{.D.P.I.W.;XE.@X[.T.D.I.]...e.9.",
"1.@.o.@.A A c.c.S -.=.=.=.I m.1.>.<.>.,.4..X<.<.5.>.-.>.oXg.d.g.j.l.d.I.V S =.-.,.;.Y.R P H P H U e.Q.p.p.d.d.d.B.7.I D I Z L L ",
"@.i i a w t E Y 6 6 t i o.9 E t i p i y 6 } i V a i r w 7.+.&.+.i 6 6 x i w w w p o.i.x 4 4 q 1 * H m.+.+.O.%.<.d.J 7 9 3 4 % % ",
"}.[.oXR.w.P.|.}.z.W.I.I.R.R.|.e./.W.Z.P.T.<XG.^.Z.x.R.W.<XOX|./.I.[.P.^.oX9.I.[.}.}.>XG.Z.T.e.| e./.2XI.I.:XOX,X4X{.H.A.q.9.T.Z.",
"B.N.N.U.E E ` E L n X.c.d.f.l.s.b.OX_ 6.] h.' P.T.X.b.c.m.M.c.[.l.i.p.p.s.<.B.`.B.!.~.M.l.l.@XY ,.5.g.p.s.+Xd.d.j.j.j.c.!.6.j.s.",
"a o.p U 4 4 2 2 1 + x I i p p r 6 Y $ 1 $ + $ $ n w 6 t i u p j y w w p &.O.t.A s r w y 6 i } w i i a V V e.i p p t w w I 6 e i ",
"9 c r ~ # O O O O + j I 9 y y 3 6 L X @ o o O + b 3 < 3 u p y g 8 4 q q S C W M B V y 5 5 I ' 7 3 7 q k 8 e.k B v 8 9 Z Y y w u ",
"n.B.U.W.Q.Q. X1X).@XE.E..X`.,Xk.!.!.I.Q.w.5XXXXX7XXXXXXX9X`.).+XE..XXX9X+X[.+X@X XXX2X3X!.XX X XXX[. X.X`.7X$X7X+X,X). Xc.h.x.] ",
"B i r w w w I I w w i i a V E w e y t t 6 a.a s O.+.$.$.E 6 w i i p i k.w w e i p i c.9 6 t o.O.s 1.D w w 3 6 i V I w t t t i e ",
"T -.D B u 0 a.R u 7 V B A V { c A B v y y 0.O.C O.V -.S { p 0 u V C B c.v 0 9 V V B I.M c c B :.;.] ] 0 9 v A @.D E 7 9 v B B c ",
" XY.B.{.x.U.[. XU.I./.U.~.U.oXE.~.}.`. XE.:X[. X;XC.P.Z.R.I.w.R.c.d.i.M.l.6.k.m.i.p.b.i.6.6.oXr.U.x.`.M.l.|.c.~.I.Y.E.U.:X6.k.k.",
"&.*.&.U w t t w w t E B y i t V p ] @.p t i w w v l 1 4 = % 1 l ,.a o.o.t w y ` o.O.p p w e h.6 6 w O.*.%.W p t w t 6 w 4.6 w 6 ",
"a s o.P < 6 i i C p N D r w t p +.] @.a a a w t y h O > 4 9 x f p.*.2.i 6 6 5 ` V v t p y 6 r.r V O.p o.o.] p v p p 7 e U v i o.",
"8.G.[.{.I.Z.Z.^.e.^.-X|.q.F.|.].].<Xq.D.Z.G.{ w.^.T.D.C.F.) q.{.{.^.S.F.G.| | T.{ q.| ..e.e.].| T.q. .C.A.*X8.%XK.K.T.(.6X .(.F.",
"T :.y.#.v v 4.l.I @.-.I -.,.d.S -.D I A V T.%.-.@.@.V I a.A #.#.S @.v T.1 = 4 x B 0 | i p s o.O.o.,.g 8 m d # d d P #.#.#.@.@.v ",
"p s o.i u y L Z w w p i p V T s V w w w i [ y 7 3 3 w 3 F y o.v t 3 6 X.+ * 1 * = = ! 3 3 3 p *.O.P # .           m v o.v y 6 w ",
"I.n.w.9.I.k.Z.I.E H ' h.k.r.R.x.n.x.x...T.-Xq.w.{ ..P.Z./.P.0.c.k.z.w.*X9...) ^ S.| K.0.x.Z.e.n.E.R. .! ! ! ) 8.8.G.c.0.x.0.0.z.",
"y u y i.t y i O.+.+.6.D y s a s s d.I A A @.#.A L j.>.I >.-.-.s.k.@.-.I #.V V P.4 c c 5 h 1 r.;.y.;.y B w E.C C V B v A k.;.:.u.",
"i w w ` 6 w a i V i ' k w 6 p *.@.j.4 o.i t w 6 7 A w e i i p =.T o.t w e w y ^ + 9 6 > $ $ E o.O.o.p w w h.t i p i t w P +.o.O.",
"' } R Z.` E U G _ _ C._ ` _ ' a.k./.{ 6.` i.E U ] h.` U ` ` 4.h.Z.j.h.} ` H k.A.J J J / Y Y I.} 7.R ] 7._ |.' h.a.' _ } R.i.a._ ",
"E P L G G L X.6.U Y U U Y } ).s.j.l.d.s.h.:Xv.v.b.s.s.4.;X4.5.5.4.i.4.W.4.>.d.s.j.5.).b.d.s.j.s.b.).`.5.5.d.l.g.~.Q.N.v.N.d.a.6.",
"4 1 1 1 + + m D 7 u 3 > > * E e i i i w 6 ] p o.p p t w w.6 6 i w p t M w w w 6 e p i.@.i t a t w T i.w w 6 w V >.E a o.p p w w ",
"K G H N f b ) ' P H f h h d } c I c x k v C.z U x c z c P.z c z D B M { 4.q M I T E e.P Z D B q B ' W.x h Y T E k.{ L H k k Z c ",
"8X2X0X4X5X0X0XaXqXuXiX+X+X.X$X+X$X5XqXuX5XaXwX5X5X4XqX;X1X1X;X5XiXpXtXtXpXwXpX5X`.`.`.XX_._.5X'._.`.XX!.`.qX-X1X<X6X6X<XaX1X7X7X",
"i V i P w w e y p p a.,.s O.a t 6 L L i e e i e y K O o o o + k I r u V i p @.a.w t p s o.p } V O.V p r w 6.& O O & o o n w w p ",
"O.+.o.E o.i y e o.$.7.p.*.*.w w w k z o.o.v 6 < 6 G $ 1 + o + z Z t w p p p -.a.w t p r i r ..i A i p t w ] 2 = O O . o n y t i ",
"k.m.~.[./.0.R.1X}.}.=X}.[.D.].I.T.^./.P.X.|.R.E./.&XW.T.T.^.F.(.}.E.r.R.h.} 7.U.h.} } ].(.G.=XA./.A.Z.I.E.,XA.|.^.F.8.D.{.w.W.X.",
"D V u u e w Y L + + % % 1 q R w e e t t y h.6 t p o.@.o.` 6 w i t i i c.w w i a s V W 1 + > > > 2 P >.w r t i p V E w i t w t w ",
"V O.p y 6 y >.l + 1 2 3 3 9 H r @.i i < < ] 6 e p i v v U t t i a i i c.w 6 6 V u.$.] & $ 3 1 3 3 P E w w w t O.V I < 6 i V O.7 ",
"E.I.U.G.w.X.[.^.9.{ 9.w.r.9.|.P.k.P.x.P.P./.P.P.P...T.z./.I.X.r.r.j.] /.} r.c.r.7.j.W.7._ J w...X.w. X} } I.x.n.x.W.z.z.W.` 0.0.",
"y.y.&.{ V =.@.#.#.V a.I V A S =.#.h.L x m x m h n 4.#.@.@.A B R <.o.o.o.o.u Z 4.O.+.O.p y t c.u u v :.y.:.7.@.@.c A v A l.y u u ",
"s s O.P 6 6 e t o.i j A w w 6 i p 4.5 , $ , $ + + v 6 w t i o.z ,.+.*.p 6 w 3 ' V o.i i w w 6.w y i o.+.o.W i i p i w w Y w w p "
};
